<?xml version="1.0" encoding="utf-8"?>
<!-- Generator: Adobe Illustrator 22.0.1, SVG Export Plug-In . SVG Version: 6.00 Build 0)  -->
<svg version="1.0" id="Capa_1" xmlns="http://www.w3.org/2000/svg" xmlns:xlink="http://www.w3.org/1999/xlink" x="0px" y="0px"
	 viewBox="0 0 600 165.3" style="enable-background:new 0 0 600 165.3;" xml:space="preserve">
<style type="text/css">
	.st0{fill-rule:evenodd;clip-rule:evenodd;fill:#24135f;}
	.st1{fill:#24135f;}
</style>
<g>
	<path class="st0" d="M44.2,52.3c-1.3,0.3-2.7-0.7-3.2-2.1c-0.5-1.3-0.6-1.7-1-3.2c-0.4-1.2-0.4-2.9-0.8-4.2
		c-0.3-1.3,0.6-1.9,0.6-1.9c0,0,0.5-0.6,1.4-1.5c0.2-0.2,2.7-3,3.3-2.6c1,0.7,0.2,1.1-0.3,1.2c-0.4,0.1-1.9,0.9-0.1,0.7
		c1.1-0.2,0.5,0.7,0.1,1.2c-0.4,0.5-0.9,1.5-1.5,2.5c-0.5,0.8-0.7,0.7-0.8,1.3c-0.1,0.6-0.4,2.2,0,4.1c0.4,1.7,0.6,2.4,1.3,2.7
		c0.7,0.3,2.9,0.1,3.6,0c0.7-0.2,0.4,0.9,0.8,1.5C47.6,52.1,44.2,52.3,44.2,52.3"/>
	<path class="st0" d="M43.5,46.6c-0.1-0.1,0.7-0.4,1-0.2c0.2,0.6,0.5,0.7,1.2,0.8c0.6,0,2.7-0.1,2.9-0.1c0.1-0.1-0.4,1.2-0.9,1.2
		l-3-0.1C43.5,47.8,43.6,46.7,43.5,46.6"/>
	<path class="st0" d="M47,38c0.3-0.5,0.8-0.8,1-1.1c0.9-1.1,0.3-1.6-0.8-1.9c-0.6,0.2-0.8,0.6-1.1,0.7c-0.1,0-0.4,0.4-0.3,0.4
		c0,0.9,0.2,1.4,0.1,1.9c-0.1,0.4-0.2,0.9-0.4,1.3c-0.5,1-0.3,0.3-0.8,0.9c0,0.1-0.7,1.4-1.4,2.6c-0.6,0.9-0.6,2.3,0.5,2.8
		c0.8,0,2.3-0.6,2.8-0.7c0.6-0.2,2.5-1.2,3.5-2.2c0.2-0.3,0.2-0.6,0.1-0.6c-0.4-0.1-2.1,0.9-2.1,0.9c-1.4,0.6-2.9,1.2-3.3,0.7l0,0
		c0.1-1.4,1.8-3,2.5-3.9c0.2-0.4-0.5-0.8-0.1-1.8C47,38.1,47,38.1,47,38"/>
	<path class="st0" d="M47.5,38.6l0.9-0.9c0.1,0.2,1.8,2.4-0.7,4C47.4,41.6,48.8,40,47.5,38.6"/>
	<path class="st0" d="M58.4,40.8c0-0.1,1.6,1.4-0.5,1.9l-0.4,1.2c-0.1,0.2,1.5,0.3,2.1-1.3c0.7-1.6-0.2-2.9-0.9-2.9L58.4,40.8z"/>
	<path class="st0" d="M56.6,40.2c0.1-0.3-1.6,1-1.7,1.4c-0.3,0.2,0,0.7,0.8,0.5C56.3,41.6,56.6,40.3,56.6,40.2 M58.3,34.5
		c-0.1-0.3,1.1-0.8,1.3,0.6c0.4,3.5-1,3.1-1.5,4.4c-0.5,1.9-1.1,4.2-1.9,4.4c-0.5-0.1-0.9-0.5-1.4-0.5c-1.2-0.1-1.5-0.4-1.5-0.5
		c-0.3-1.7,0.4-1.8,3.5-4.2C57.7,38.4,58.3,34.8,58.3,34.5"/>
	<path class="st0" d="M60.3,37c0.6,0.1,0.9-0.4,1-1.4c0.2-3.2,1-1.6,0.8-0.3c1,0.1,0.8-0.6,0.7-1.6c-0.4-1.6-1.6-2.7-2-0.5
		c-0.3,1.4-0.1,2.8-0.6,2.9L60.3,37z"/>
	<path class="st0" d="M60.3,39.6c0.2,0.2,1.2-0.7,2.5-1.5c1.2-0.8,2-1.8,2.5-3c0.7-4.1-1.4-6.4-1.3-4.1c0.2,0.8,0.3,2,0.1,3.2
		c-0.3,1.9-2.3,2.7-2.9,3.3c-0.2,0.2-1.4,1-1.5,1.4L60.3,39.6z"/>
	<path class="st0" d="M66.3,34.9c0,0.1,0.7-0.3,1.1-1c1-1.4,1.4-1.6,1.7-0.5c-0.1,1-1.2,1.7-1,1.9l0.7,1.1c0.6-0.8,0.9-1.4,1.1-2
		c0.1-0.6,0.4-1.5,0-3c-0.4-1.5-2-2-2-0.9c-0.4,2.5-1.5,3.1-1.7,3.5C66.2,34.2,66.2,34.5,66.3,34.9"/>
	<path class="st0" d="M61,41.1c-0.1,0.1,2.8-1.8,3.5-2.2c1-0.6,1.5-1,1.8-1c0.4,0-0.1,0.7-0.9,1.6c-0.8,0.9-4.3,2.4-4.8,2.4l-0.1,1
		c1,0.1,4.4-1.7,5-2.3c0.5-0.4,1.3-0.9,2.1-2.2c0.8-1.4-0.1-2.7-0.8-2c-2,1.6-5.7,4-6.1,4.1C60.4,40.9,61,41,61,41.1"/>
	<path class="st0" d="M60.6,44.9l-1.5,0c-0.3,0-0.8-0.6,1-1c1.8-0.4,3-1.2,3.5-1.5c1-0.7,5-2.8,5.1,0.2c-0.4,1.1-1.5,1.6-2.6,2.2
		c-0.9,0.4-2.7-0.2-1-0.8c0.6-0.4,1.3-0.6,1.7-1c0.5-0.7,0.6-1.3-1.3-0.4C62.6,43.6,60.6,44.9,60.6,44.9"/>
	<path class="st0" d="M51.3,47.3c0,0,1.2,0.8,2.5-0.1c1.2-1,0.8-1.6,2.5-1.1c1.8,0.5,2,0.6,2,0.6L58,47.3c0,0-2.4-0.1-3.2,0.3
		c-0.6,0.3-3,1.6-2.9,3.3c0.1,1.7,0.2,1.5-0.1,1.9c-0.3,0.4-2.4-1.3-2.4-3.3C49.9,48.7,50.6,47.6,51.3,47.3 M53.3,45.4
		c0.4,0.7-0.9,1.1-1.9,0.4c-0.4-0.2-2.3,2.4-2.5,2.6c-0.3,0.2-1.8,2.1,0.9,5c1.5,1.6,3.5,1.8,4.6,1.7c0.5,0,0.5-0.8,0.3-0.9
		c-0.2-0.1-2.5-2.1-1.5-3.9c1-1.8,1.9-1.8,3.9-1.8c1.7,0,0.8,0.2,1.5,0c1.2-0.6,2.3-1.6,3.3-1.7c1.3,0,2.6,0.6,1.5,1.2
		c-0.6,0.3-1.2,0.7-2.1,1.1c-0.6,0.3-1.1,0.4-1.3,0.6l0.4,0.8c0.1,0.2,1.1-0.4,1.8-0.6c0.7-0.2,3.2-1.6,3-1.5c0.1-0.2,0.8-0.4,1-0.7
		c0.3-0.4,0.2-1.2-0.8-1.6c-1.7-0.7-1.1-1.6-4-0.9c-2.6,0.6-4.1,0-4.5-0.2c-0.1,0-0.1-0.1-0.1-0.1c-0.1-0.1-3.2-1.3-3.6-0.9
		C53,44.3,51.1,45.1,53.3,45.4"/>
	<path class="st0" d="M59.6,59.4c0.2,0.1,4.5-5.4-1.7-10.2c-1-0.3-1.9,0.1-1.8,0c1.6,1.3,2.6,2.2,3.3,3.2
		C60.6,54.2,60.1,56.4,59.6,59.4"/>
	<path class="st0" d="M76.5,28c0.2,0.6,1.9-0.2,1.6,0.8c-0.1,0.3-1.8,0.1-2,0.3c-0.2,0.2-0.3,0.5,0.1,0.7c0.4,0.2,2,0,2.3-0.1
		c0.3-0.1,0.6-0.3,0.6-0.9c0-0.6-0.4-1.1-0.8-1.2C77.7,27.4,76.5,27.4,76.5,28"/>
	<path class="st0" d="M78.4,25.3c-1.1-0.2-3,0.3-3.3,0.5c-1.1,0.5-1.8,3.5-1.2,5.6c0.4,0.7,2,1.2,2.7,1.4c2.3,0.7,3.6,1.1,4.7,1.7
		c0.9,0.5,1.7,1.1,2.4,1.9c0.6,0.7,1.3,1.9,1.4,3.8c0,1.3,1.1,3,1.6,2.9c-0.2-0.5-0.2-3.7-0.5-4.7c-0.9-3.1-2.9-4.3-3.4-4.6
		c-1.7-1.1-3.4-1.7-4.8-2.1c-1.4-0.4-2.6-0.8-2.8-1.5c-0.2-2.4,0.6-3.2,0.8-3.3c0.7-0.4,1.8-0.2,2.4-0.5
		C78.6,26.4,79.1,25.9,78.4,25.3"/>
	<path class="st0" d="M86.5,36.3c0.1,0,0.2,0.4,0.3,0.4c0.2,0.1,0.3,0,0.5,0c0.2-0.3,0.1-0.5,0.1-0.6C86.9,35.5,86,35.7,86.5,36.3"
		/>
	<path class="st0" d="M88.6,41.4c-0.5-0.1-0.9-0.2-0.9-0.1c0,0.1-0.1,0.4-0.1,1c0.1,0.1,0.2,0.3,0.3,0.3c0.5,0,0.9,0,1-0.1
		C89.5,41.7,88.9,41.6,88.6,41.4"/>
	<path class="st0" d="M89.6,30c0.3,0.1,1.1,0.1,1.9,0.2c0.1,0,0.2-0.3,0.1-0.4c-0.3-0.2-0.5-0.5-1.2-0.6c-0.9,0-1.7-0.2-1.9-0.2
		c-0.1,0,0,0.1,0,0.3C88.5,29.4,88.7,29.4,89.6,30"/>
	<path class="st0" d="M78.1,30.8c0.5,0.3,0.8,0.4,1,0.5c0.3,0.1,0.7,0,1.4,0.1c0.5,0.1,2,0.5,2.4,1c0.1,0.1-0.3,0.4,0,0.6
		c0.4,0.2,0.7,0.2,1.1,0.2c0.4,0,1,0.2,1.3-0.1c0.5-0.5-0.5-0.9-1-1.2c-1.2-0.4-1.6-0.8-2.1-1c-0.5-0.2-1.4-0.4-1.9-0.4
		C80,30.7,77.8,30.5,78.1,30.8"/>
	<path class="st0" d="M80,35.5c0-0.2-1.6,0.4-2.3,0.2c-0.7-0.2-3.6-1.3-4.4-1.5c-0.9-0.2-1.1-0.4-1.9-0.5c-0.8-0.1-0.4,0.7-0.3,0.8
		c0.1,0.1,2.1,0.7,2.9,0.9c0.7,0.2,1.8,0.6,2.5,1c1,0.4,1.5,0.8,1.5,0.8s0.3,0.7-0.5,0.6c-0.7,0-0.8-0.2-3.7-1.5
		c-2.9-1.2-3.2-1.1-3.1-1.2c0,0-0.9,0.5,0,0.9c1.1,0.4,3.6,1.4,4.3,1.8c0.7,0.4,2.4,1.4,2.8,1.5C78.8,39.6,80,36.5,80,35.5"/>
	<path class="st0" d="M77.2,41.1c0-1.2-3.9-3.3-5.1-3.8c-1-0.4-1.5-0.6-2-0.7c-0.5-0.1-0.5,0.4-0.4,0.5c0.1,0.1,1.9,0.7,2.6,1
		c0.7,0.3,1.4,0.8,1.9,1.3c0.8,0.7,1.1,1,1.2,1.3c0.2,0.3,0.3,1.5-1.2,1c-0.4-0.1-0.3-0.3-2.8-1.6c-2.9-1.4-3.4-1.1-3.3-0.9
		c0,0.1,0.2,0.5,0.4,0.5c0.8,0.2,3,1.2,3.3,1.5c0.4,0.1,2.6,1.8,2.9,2.1C75.8,43.9,77.2,42.1,77.2,41.1"/>
	<path class="st0" d="M68.9,38.5c-0.2,0-0.5-0.6,0.1-0.7c0.6-0.1,4.9,2.1,5.1,2.3c0.2,0.1,0.9,1.1-0.4,0.6
		C73.6,40.6,70.5,38.8,68.9,38.5"/>
	<path class="st0" d="M68.3,44.8c0-0.1,0-0.7,0.8-0.2c0.3,0.9,0.8,1.7,0.8,2.5c0,0.4-1.2,1.2-1.7,1.1c-0.5-0.1-0.6-0.2-0.9-0.9
		c-0.2-0.7-0.5-1.2-0.7-1.6c-0.1-0.2,0.6-0.7,0.9-0.4c0.2,0.3,0.4,1,0.8,1.4c0.1,0.1,0.5,0,0.5-0.2C68.9,46,68.4,45.1,68.3,44.8"/>
	<path class="st0" d="M70.5,47.6c0.1-0.3,1.1-0.4,1,0.4c-0.4,1.7-0.5,3.9-1.7,5c-0.4,0.3-2.5,0.4-2.9-0.1c-0.5-0.5-0.3-0.9,0.3-1.9
		c0.5-0.7,0.8-1.4,1-1.9c0.3-0.5,1.3-0.6,0.7,0.4c-0.1,0.5-0.5,1.2-0.9,2c-0.3,0.5,0.5,0.7,0.9,0.3C69.6,51.1,70.3,48.1,70.5,47.6"
		/>
	<path class="st0" d="M66.5,59.2l-0.2,1.2c0,0.3-1.6-0.4-2.3-1c-1.2-1.3,1.3-2.5,2.5-5.3c0.2-0.5,1.4-0.6,0.7,0.4
		c-0.2,0.5-1.4,2.4-1.8,3.2c-0.2,0.5-0.3,0.4-0.1,1C65.5,59.1,66.5,59.1,66.5,59.2"/>
	<path class="st0" d="M75.6,44.4c0-0.2,1-0.7,1-0.4c0.3,2,0.7,5.4-0.2,7.7c-0.3,0.7-3.5,1.7-4.2,1.1c-0.7-0.6-0.5-0.9-0.2-2.3
		c0.3-1.4,0.2-2.7,0.4-3.4c0-0.1,0.7-0.8,0.9-0.3c-0.2,0.9-0.2,2.4-0.3,3.5c-0.2,1.1,1.5,0.9,2,0.1C75.8,49.7,75.5,45.3,75.6,44.4"
		/>
	<path class="st0" d="M72.8,54.3c0.1-0.5,0.8-0.5,0.7,0c-0.4,1.3-1.6,5.8-2.9,7c-0.4,0.4-3,0-3.2-0.5c-0.2-0.6-0.2-1.2,0.2-1.8
		c0.4-0.7,2.1-4.6,2.6-5.3c0,0,0.9-0.8,0.9-0.4c-0.2,0.6-1.9,4.9-2.5,5.8C68,60,69.6,60.4,70.2,60C71,59.6,72.7,54.9,72.8,54.3"/>
	<path class="st0" d="M69.7,62.8c0.1-0.3-1.1-0.6-1.2-0.2c-0.1,0.2-2.7,4.2,0.3,10.6c0.4,0.7,1.8,3.3,3.1,3.5c1.2,0.2,2.6-0.6,3-1.8
		c0-0.1,0.2-1.3-0.2-2.5c-0.5-1.6-0.8-4.5-0.7-6c0.2-2.2,0.5-2.4,0.5-2.8c0-0.1-0.7-0.3-1.1,0c-0.4,0.6-0.9,1.9-0.9,3.9
		c0,2,0.6,4.3,0.7,6.1c0.4,1.5-2.1,1.3-2.4,0.5c-1-1.6-1.9-3.9-1.9-6.2C68.9,66,69.2,64.2,69.7,62.8"/>
	<path class="st0" d="M76.8,63.3c0-0.1-0.7,0-1.1,0.2c0,0.1-1.6,4.7,0.6,10c0.3,0.6,0.8,1.2,1.8,1.3c1,0.2,3.3-0.7,3.6-1.8
		c0-0.1,0.1-1.1,0-2.2c-0.1-1.2-0.5-3.3-0.5-4.6c-0.1-2.2,0.1-3.5,0.1-3.9c0-0.1-1-0.6-1.3-0.4c-0.3,0.4-0.2,2.3-0.2,4.7
		c0,1.6,0.1,2.7,0.1,4.2c0,1.9-1.9,2.1-2.4,1.2c-0.7-1.3-0.7-2.2-0.9-4.2C76.5,66.4,76.8,64.5,76.8,63.3"/>
	<path class="st0" d="M83.2,62c0-0.1-0.8,0-1.1,0.2c0,0.3-0.4,3.7,0.9,8.3c0.3,1.2,1.9,1.5,2.8,0.7c2-2,2.5-2.6,1.9-5.4
		c-0.4-1.8-1.2-3.7-1.8-5.7c0,0-0.6,0-0.8,0.4c0.1,0.6,0.4,1.9,0.8,3.8c0.3,1.5,0.6,3.9-0.2,4.7C83.1,71.6,83.3,63.9,83.2,62"/>
	<path class="st0" d="M79,39.9c0-0.1,0.6-0.4,0.6-0.3c1.3,1.8,3.6,6.6,3.1,9.2c-0.1,0.8-3.4,2.6-4.2,2.2c-0.8-0.4-0.6-1.4-0.5-2.7
		c0-1.3-0.6-4.8-0.7-5.4c-0.2-0.6,0.7-0.6,0.7-0.3c0.3,1.5,1,4.6,1.2,5.8c0.1,1.2,1.7,0.1,2.3-0.9C81.9,46.8,79.4,41,79,39.9"/>
	<path class="st0" d="M69.9,42.9c-0.1-0.1-0.6,0.3-0.4,0.8c0.3,0.6,0.5,1.3,0.7,1.7c0.3,0.5,0.6,1.2,1.8,0.9
		c1.2-0.4,1.9-1.6,1.9-1.9c0-0.1-0.1-0.7-0.5-1.2c-0.9-0.9-2.3-1.7-3.7-2.4c-1.1-0.4-0.7,0-0.5,0.3c0.1,0.1,0.1,0.3,0.2,0.4
		c0.5,0.3,1.9,1.1,2.2,1.4c0.3,0.3,0.9,1,0.8,1.3c0,0.1-0.2,0.6-0.9,0.5C70.8,44.5,70.1,43,69.9,42.9"/>
	<path class="st0" d="M74.2,45.8c0,0,0.5-0.9,0.6-0.4c0.1,0.5,0,3.7,0.1,3.5c0,0.1-0.3,0.9-0.5,0.9c-0.2,0-0.3-0.4-0.3-0.8
		C74.2,48,74.1,45.9,74.2,45.8"/>
	<path class="st0" d="M78,41c0,0,0-0.9,0.5-0.2c0.2,0.4,0.7,1.6,1.1,2.8c0.4,1.1,0.6,2,0.7,2.5c0,0.3,0.2,1.3,0.1,1.4
		c-0.1,0.1-0.4,0-0.5-0.5c-0.1-0.5-0.2-1.2-0.4-1.9C79,43.8,78.3,42.2,78,41"/>
	<path class="st0" d="M80.1,39.2c-0.1-0.2-0.2-0.6,0.3-0.2c0.5,0.4,1.9,2.3,2.3,2.8c0.2,0.3,1.5,2.6,1.2,3.8c-0.4,0.6-0.6,0-0.6-0.3
		c0-0.6-0.9-2.5-1.1-3C81.9,41.8,80.6,39.7,80.1,39.2"/>
	<path class="st0" d="M85.3,34.9c-0.1,0.1-0.6-0.6-0.5-0.8c0.1-0.2,1-0.2,2.1-0.2c0.6,0.1,1,0.1,1.4,0.6c0.6,0.7,1.6,2.6,1.2,3.6
		c-0.4,0.2-0.8,0.2-1.3,0.2c-1.1,0.1-0.8-0.1-1-1c0.2-0.3,1.3,0.1,1.4-0.4c0-0.6-0.9-2-1.3-2C86.8,34.9,85.3,34.9,85.3,34.9"/>
	<path class="st0" d="M75.2,127c0.9-0.3,1.2-0.1,1.9,0c1.2,1.3,2.1,3.5,2.7,5.5c0.8,2.6,1.7,5.2,3.6,7.3c-0.5,0.2-1,0.2-1.4,0
		c0-0.1-1.7-0.5-3.4-6.4C77.7,131,76.7,128.3,75.2,127"/>
	<path class="st0" d="M78.9,126.9c0.9-0.1,1,0,1.8,0.1c0,0,1.3,0.8,3,6.1c1.4,4.3,3.2,6.6,3.3,6.6c0,0-0.7,0.2-1.3,0
		c-0.1,0-1.2,0.1-3.2-6.1C81.6,131.3,80.4,128.2,78.9,126.9"/>
	<path class="st0" d="M86.2,130.5c1,2.1,2.9,8,4.5,9.2c0,0-0.9,0.1-1.5,0c-1.3-0.3-3.1-6.6-4.6-9.3
		C85.3,130.3,86.2,130.5,86.2,130.5"/>
	<path class="st0" d="M72,126.1c0.3,0.8,1.2,0.9,1.1-0.3c-0.6-4.9-7.7-1.9-4.6,2.3c-0.2,0.9-1.5,2.9,0.3,7.1c-2.1,2.3-0.7,4.6,1.7,5
		c0.6-0.1,2.8-0.1,3-2.9c-0.2-1-0.9-1.1-1.4-0.4c-0.1,0.3,0.1,0.9-0.3,1.2c-0.7,0.7-1.9,0.4-1.9-1c0.1-1.2,1.3-1.4,1.2-1.7
		c-1.9-2.5-0.7-7.3-0.2-7.6c-0.4-0.4-0.9-0.8-1.1-1.2c-0.5-1.1,0.4-1.6,1.2-1.5C71.8,125.2,71.8,126,72,126.1"/>
	<path class="st0" d="M94.2,127c-0.3,0.7-1.3,0.8-1.3-0.4c0.8-4.6,8-2,4.5,2.4c0.2,0.8,1.3,1.4,0,6.2c2.1,2.2,0.8,4.6-1.5,5
		c-0.6-0.1-2.6-0.1-2.8-2.8c0-1,1-1,1.2-0.1c0.3,1.3,2.1,1.1,2.2-0.1c-0.1-1.1-1.3-1.5-1.2-1.8c1.7-2.6,0.6-6.7,0-6.8
		c0.4-0.4,1.1-1,1.2-1.3c0.5-1-0.5-1.7-1.2-1.5C94.5,126.3,94.6,126.7,94.2,127"/>
	<path class="st0" d="M73.7,124.2c0.3,0.6,0.5,1,0.5,1.7l7.5,0c0.1-0.5,0.2-1.1,0-1.7H73.7z"/>
	<path class="st0" d="M71.7,141c0.3-0.3,1.2-0.5,1.7-1c0.1-0.1,0,0.7,2.4,0.7l14.9,0c-0.1,0.1,2.2-0.2,2.2-0.8
		c0-0.1,0.7,0.9,1.7,1.1c-0.8,0.9-2.1,1.4-3.5,1.5H74.7C73.2,142.2,72.8,142.1,71.7,141"/>
	<path class="st0" d="M86.8,123.6c0,0.7,0.3,1.5,1.5,0.6c0.4-1.3,0.5-2.5,1.1-2.9C88.3,121.2,86.8,122.9,86.8,123.6"/>
	<path class="st0" d="M92.5,119.2c-0.5,0.1-1.8,0-1-1.3c0.9-0.8,2.1-1.2,2.9-1.8C94.5,117.2,92.9,119.1,92.5,119.2"/>
	<path class="st0" d="M96.6,118.6c-0.5,0.2-1.4-1.2-0.1-1.6c1-0.3,2,0.4,3.5-0.2C99.7,118.1,97.1,119,96.6,118.6"/>
	<path class="st0" d="M112.8,118.8c1.2,0,1.9,0.1,2.8,0.3C112.1,121.7,111.1,119,112.8,118.8"/>
	<path class="st0" d="M117,118.8c0.4,0,1.4,0.2,2.2,0.3C116.2,121.1,115.5,119,117,118.8"/>
	<path class="st0" d="M117.5,116.4c0.4-0.2,1.2-0.8,2.3-1.2C118.8,119,116.4,117.8,117.5,116.4"/>
	<path class="st0" d="M115.6,116.8c0.4-1,0.7-2,1.1-2.7C112.9,115.6,114.2,118.3,115.6,116.8"/>
	<path class="st0" d="M97.3,113.5c-0.6,0.8-0.5,1.5,0.8,1.4c1.1-0.5,1.3-1.2,2.8-1.8C100,112.7,98.2,112.7,97.3,113.5"/>
	<path class="st0" d="M71.5,110.7c1,0.4,0.8,1.9-0.6,1.5c-1.3-0.4-1.4-0.8-2.8-0.7C68.5,110.7,70.1,110.2,71.5,110.7"/>
	<path class="st0" d="M60.6,111.9c0.7,0.2,1.5-0.8,0.6-1.3c-0.8-0.4-1-0.2-2.6-0.5C58.7,110.9,59.5,111.8,60.6,111.9"/>
	<path class="st0" d="M54.4,112.8c0.8,0.3,1.7-0.7,0.8-1.1c-0.8-0.4-1-0.1-2.6-0.7C52.7,111.7,53.5,112.5,54.4,112.8"/>
	<path class="st0" d="M42.2,106.3c1.4,0.4,1.9-1.1,0.4-1.7c-0.9-0.3-1,0-2.1-0.6C40.5,104.9,41.1,106.1,42.2,106.3"/>
	<path class="st0" d="M37.2,103.8c1,0.7,2.1-0.7,1-1.4c-0.7-0.5-1.6-0.5-2.4-1.2C35.8,101.8,36.4,102.9,37.2,103.8"/>
	<path class="st0" d="M42.5,101c0.3,1.2-1.5,1.6-1.7,0.4c-0.1-0.7,0-1.2-0.4-2.3C41.2,99.4,42.2,99.9,42.5,101"/>
	<path class="st0" d="M38.9,99.8c-0.4,1.2-1.6,0.8-1.7,0c-0.1-0.8,0-0.7,0-2.2C37.9,97.8,38.9,98.6,38.9,99.8"/>
	<path class="st0" d="M51.9,107.8c0.9,0.4,0.5,1.6-0.5,1.3c-0.5-0.2-0.9-0.8-1.9-0.9C49.7,107.8,50.6,107.5,51.9,107.8"/>
	<path class="st0" d="M82,113.6c0.8,0.4,1.4,1.2,0,1.6c-1.1,0-1.6-0.6-3.1-0.4C79.4,114,80.8,113.3,82,113.6"/>
	<path class="st0" d="M75.9,110.2c0.4,1-0.4,1.7-1.4,0.9c-1.1-0.8-0.7-1-1.9-1.8C73.4,109,75.1,109.3,75.9,110.2"/>
	<path class="st0" d="M73.2,116.5c0.8-0.1,1.2-1.3,0-1.7c-1.1,0.1-1.2,0.5-3,0.8C70.7,116.2,72,116.6,73.2,116.5"/>
	<path class="st0" d="M76.8,114.5c0.9-0.2,1.3-0.8,0.2-1.5c-1.1-0.3-1.7,0.2-3.1-0.3C74.2,113.6,75.6,114.6,76.8,114.5"/>
	<path class="st0" d="M93.5,113.6c-0.3,0.4,0.2,1.4,1.2,0.7c0.4-0.9,0.5-1.2,1.5-2.2C95.2,111.9,93.5,113,93.5,113.6"/>
	<path class="st0" d="M87.5,112.9c-0.2-1-0.5-1.2-1.6,0.3c-1.1,1.4-0.4,4.1,1.6,4.5c1.4,0.3,1.3-0.2,0.6-0.6
		c-0.7-0.5-0.7-1.1,0.1-1.4c0.8-0.2,1.2-1.1,0.2-1.6C87.6,113.8,87.5,113,87.5,112.9"/>
	<path class="st0" d="M82.7,112.5c-2.2-0.3-2.5-3.3-1.3-4.6c0.7-0.7,2.2-1.1,3.3-0.9c-0.1,1.1,0,2.1,0.3,2.9
		c0.1,0.9-0.4,1.2-1.2,0.9C82.5,110.3,82.4,111.5,82.7,112.5"/>
	<path class="st0" d="M61,122.7l0.9-0.4c2.1,3.5,3.1,3.5,4.7,4.1l0.3,1C64.6,127.5,62.1,125.3,61,122.7"/>
	<path class="st0" d="M59.5,116.9c1.5,0,2.7,1.2,2.7,2.6c0,1.4-1.2,2.6-2.7,2.6c-1.5,0-2.7-1.2-2.7-2.6
		C56.8,118.1,58,116.9,59.5,116.9 M59.5,118.4c0.6,0,1.1,0.5,1.1,1.1c0,0.6-0.5,1.1-1.1,1.1c-0.6,0-1.1-0.5-1.1-1.1
		C58.4,118.9,58.9,118.4,59.5,118.4"/>
	<path class="st0" d="M47.8,126.6c1.5,0,2.7,1.2,2.7,2.6c0,1.4-1.2,2.6-2.7,2.6c-1.5,0-2.7-1.2-2.7-2.6
		C45.2,127.7,46.4,126.6,47.8,126.6 M47.8,128.1c0.6,0,1.1,0.5,1.1,1.1c0,0.6-0.5,1.1-1.1,1.1c-0.6,0-1.1-0.5-1.1-1.1
		C46.7,128.6,47.2,128.1,47.8,128.1"/>
	<path class="st0" d="M59.8,106.9c-0.2-0.5,0.4-1,0.4-1c0,0,2.7,2.4,2.9,2.8c0.2,0.4-0.2,1.4-0.3,1.4
		C62.6,109.8,60.3,107.3,59.8,106.9"/>
	<path class="st0" d="M55,103.1c0,0.2,1.3-1.2,2.3,0.3c0.5,2.3-1.2,3.6-1.2,3.7c-1.2,0.4-1.9,0.3-1.8-2.2
		C54.3,103.9,55.1,102.9,55,103.1 M58.4,102.3c1.9,2.9-1.1,6.2-1.3,6.3c-1.3,0.5-3.1,1.5-3.8-2.9C52.9,103.2,54,100.1,58.4,102.3"/>
	<path class="st0" d="M32.2,88.7c0-0.1-1.9,0-2.4,1.5c0.4,1.6,1.6,2.7,1.9,3c0.9,0.3,2.8,0.1,2.1-2.1C33.3,89.2,32.1,88.7,32.2,88.7
		 M28.2,90c-0.5,2,2.2,4.3,3.4,5c1,0.2,3.8-0.2,3-4.2C33.9,87.9,32.1,85.9,28.2,90"/>
	<path class="st0" d="M59.2,100.5c0.1-0.6-0.7,2.2,1.3,0.9c0,0,0.4-0.4,1-1.6c0-0.5-1.4-1.3-1.6-1C59.2,99.1,59,101.1,59.2,100.5"/>
	<path class="st0" d="M27.9,87.7c0.1,0.1,0.9,1.8-1.3,1.2c0,0-0.4-0.4-1.3-1.3c0.1-0.4,1.2-1.4,1.3-1.2
		C27.1,86.6,27.1,86.8,27.9,87.7"/>
	<path class="st0" d="M55.7,99.8c0.2-0.8-0.3,2.1-1.6,0.3c0,0-0.2-0.5-0.3-1.6c0.2-0.4,1.8-0.6,1.9-0.3
		C56.2,98.6,55.6,100.1,55.7,99.8"/>
	<path class="st0" d="M30.8,86c0.1,0.5,0.6,1.8,1.7,0.2c0-0.1,0.2-1,0.1-2.2c-0.2-0.2-1.9-0.1-1.9,0.2C30.7,85.4,30.7,85.2,30.8,86"
		/>
	<path class="st0" d="M58.6,100.1c-0.1,0.2-1.3,1.9-1.9-0.1c0,0-0.3-0.7-0.1-2c0.3-0.3,2.4,0,2.5,0.4
		C59.2,98.5,58.7,99.9,58.6,100.1"/>
	<path class="st0" d="M28.3,87c0.3,0.5,1.9,1.4,1.8-0.5c0,0,0.1-0.8-0.5-1.9c-0.2-0.2-2.1,0.6-2.3,0.9C27.2,85.6,28,86.5,28.3,87"/>
	<path class="st0" d="M26.7,83c0.2,0,0.3,1.2,0.4,1.2c0.8-0.1,1.5-0.5,1.6-0.6c0-0.1-0.8-1.2-0.8-1.2c0.3-0.8,0.2-1.3-0.1-1.8
		c-0.3-0.5-1.1-1.2-2.2-0.5c-1.1,0.8-0.4,2-0.3,2.2C25.5,82.7,26.6,83.1,26.7,83"/>
	<path class="st0" d="M37.4,91.3c0,0,0.9,1.3,0,2.2c-6.5,3.1-6.5,6-6.7,6.1c-1.6,0.4-1.8-1.1-1.9-0.6c-0.6,3.1,2,2.7,2.4,2.8
		c0.2,1.2,2.1,2.7,1.9,3.2c-0.4,1.2-1.4,0.3-1.6,0.5c0.5,1.6,2.6,1.3,3.1,0.9c0.4,0,0.9,0.9,2.9,1.6c0.3,1-0.3,1.3-1.2,1.6
		c2.6,1.2,3-1.2,3.2-1c0.9,0.3,3.3,0.6,4.2,0.8c0,0,0.4-1,0.4-1.6c-0.7-0.1-3.1-0.3-5.9-1.4c-2.7-1.1-3.7-3-4.9-4.7
		c-1.2-1.8-0.2-3.2,0.6-3.8c0.8-0.6,2.3-2.7,4.5-2.6c2.2,0.1,3,1.8,4,3c1,1.2,2.6,5.7,2.9,6.1c0.3,0.5,0.8-0.8,0.9-1
		c0-0.2-0.7-1.8-0.8-2.1c2.7-2.4,0.6-4.5,0.6-4.4c0.1,0.2-0.4,2.3-1.7,1.6c-0.2-0.1-0.4-0.5-0.6-0.7c-3-4.1-4.1-3.3-4-3.7
		c0-0.1,0-0.2,0-0.4C40,91.1,37.5,91.2,37.4,91.3"/>
	<path class="st0" d="M124.4,110.4c1.8-1,4.8,0.7,2.8,3.5c-2.6,2.5-5.2,2.1-5.9,1.4C120.6,114.5,121,111.9,124.4,110.4 M124.4,111.5
		c0.8-0.3,2.4,0,2.1,1.3c-1.8,1.9-3.5,1.5-3.7,1.2C122.1,113.7,123,111.9,124.4,111.5"/>
	<path class="st0" d="M126.9,106.6c-0.1-0.3,2,0.5,1.7,1c-0.2,0.5-1,1.2-0.9,1.2c0.1,0-1.5,0.9-1.3-0.5
		C126.7,106.9,127,106.7,126.9,106.6"/>
	<path class="st0" d="M129.4,108.3c0.7,0.2,1.1,0.9,1.1,1.4c0,0.5-1.9,1.1-1.8,0.9c0-0.1-1.2,0-0.5-1.1
		C128.9,108.6,129.4,108.3,129.4,108.3"/>
	<path class="st0" d="M131.1,110.7c0-0.1,0.5,1.6,0.3,1.9c-0.2,0.4-1.3,0.2-1.4,0.2c-0.1,0-1.9-0.4-0.5-1.3
		C130.8,110.7,131.1,110.8,131.1,110.7"/>
	<path class="st0" d="M131.9,106.6c-0.5,0.4-1,0.8-1.4,1l1,1.2c0.4-0.4,0.8-0.9,1.2-1.4c0,0,1.2,0.1,1.6-0.4c0.4-0.5,0.5-1.2,0-1.8
		c-0.5-0.6-0.9-0.7-1.9-0.2C131.6,105.5,131.9,106.6,131.9,106.6"/>
	<path class="st0" d="M153.7,101c-1-0.1-1.6,0-2.2,0.1l0.2,1.8c0.8-0.1,1.6-0.4,2.3-0.6c0,0,0.9,0.7,1.8,0.5
		c0.9-0.2,1.3-1.3,1.1-2.1c-0.2-0.8-0.8-1.1-1.8-1.1C154.1,99.6,153.7,100.9,153.7,101"/>
	<path class="st0" d="M142.2,125c-0.8-0.3-0.6-0.2-1.2-0.3l-0.8,1.2c0.9,0.1,1.3,0.4,1.9,0.5c0,0,0.6,1,1.6,1.1
		c0.9,0.1,1.6-0.8,1.7-1.6c0.1-0.9-0.6-1.5-1.6-1.7C142.7,124,142.2,125,142.2,125"/>
	<path class="st0" d="M147.2,98.7c0.6,0.4,0.9,0.6,1.2,0.8l-0.1,1.7c-0.1,0.1-0.2,0.1-0.4,0c-0.5-0.5-1-0.9-1.4-1.2
		c0,0.3-1.4,0.6-2-0.1c-0.6-0.7-0.6-1.4-0.2-2.1c0.4-0.6,1-0.9,2-0.6C147.2,97.4,147.1,98.6,147.2,98.7"/>
	<path class="st0" d="M135.7,121.4c0.4,0.8,1.2,2,1.5,2.6l1.5-1.1c-0.5-0.7-1.4-1.5-1.8-2.2c0,0,0.3-1.3-0.1-1.7
		c-0.4-0.5-1.3-1-2.2-0.5c-0.9,0.5-1.1,1.2-0.7,2.2C134.5,121.7,135.8,121.4,135.7,121.4"/>
	<path class="st0" d="M108.7,132.2c1.5,0,2.6,1.2,2.6,2.6c0,1.4-1.2,2.6-2.6,2.6c-1.5,0-2.6-1.2-2.6-2.6
		C106.1,133.4,107.2,132.2,108.7,132.2 M108.7,133.7c0.6,0,1.2,0.5,1.2,1.1c0,0.6-0.5,1.1-1.2,1.1c-0.6,0-1.2-0.5-1.2-1.1
		C107.5,134.2,108.1,133.7,108.7,133.7"/>
	<path class="st0" d="M116.6,127c0.2-0.1,2.2-0.9-0.7-1.4c-2.4-0.8-8,0.9-4.5,4c2.6,1.4,4.6-0.3,5.3-1.2c0.6-0.4,0.5-0.7-0.5-0.7
		c-1,0.1-2.2-0.1-2.6-0.2c-0.1,0-1.3,0-0.3,1.2c-0.2,0.5-1.7-0.3-1.6-1c0.1-0.5,1-0.9,1.6-0.9C114,126.7,116.5,127,116.6,127"/>
	<path class="st0" d="M117.4,134.8c1.1,0.1,1.5,0.4,1.6,1.5c0.1,1.1-0.9,1.4-0.8,1.7c0.2,0.3,0.3,1.2,0.2,1.5c0,0.2-1.2,1.1-1.3,1
		c-0.1-0.3-0.1-1.9-0.2-2.2c-0.1-0.3-1-0.7-1.2-1.4C115.6,136,116.2,134.7,117.4,134.8"/>
	<path class="st0" d="M123.7,146.5c-0.7,1-1.6,0.8-2.4,0.2c-0.8-0.6-0.4-1.4-0.7-1.5c-0.4-0.1-2-0.8-2-1c-0.2-0.1,0.7-1.2,1-1.3
		c0.3,0,1.5,1.2,1.5,1.3c0,0.1,1-0.5,1.9-0.2C123.9,144.2,124.5,145.5,123.7,146.5"/>
	<path class="st0" d="M100,138c-0.2,0.1,2.1-1.1,5.1-1.6c0.3-0.1,0-1.3,0.1-1.3c0.1,0-4.5,0.5-5.5,1.2
		C99.6,137.3,99.9,138.1,100,138"/>
	<path class="st0" d="M100,128.1c0.3,0.1,4.4,0.3,9.3-1.1c0.2,0.7,0,1.1-0.1,1.2c-0.1,0.1-8.7,1.5-9.9,1.2
		C99.3,128.8,99.8,128.4,100,128.1"/>
	<path class="st0" d="M104.9,134.3c0.3-0.1,0.7-0.4,0.6-1.2c-0.3-0.3-1.9-0.7-0.4-1.4c1.8-0.7,3.9-1.2,4.8-1.5
		c0.1-0.4-0.2-1.1-0.5-1.1c-0.3-0.1-5,1.5-5.1,1.7c-0.1,0.2-1.6,0.3-1.3,2C103,133.4,104.9,134.3,104.9,134.3"/>
	<path class="st0" d="M61.6,136.1v1.1c0,0.1,3,0,4.9,1.1c0.3-0.3,0.3-1.7,0.2-2C66.2,136.5,61.3,135.7,61.6,136.1"/>
	<path class="st0" d="M46,134.4c0.1-0.5,1.4-1.3,2.1,0.3c0.2,0.7,0.2,1.1,0.2,1.1c-0.1,0.2-2.4,0.7-2.3,0.4
		C45.8,135.8,46,134.5,46,134.4"/>
	<path class="st0" d="M39.2,142.7c-0.6,0.1-1.4,1.9,0.5,2.1c0.6-0.1,0.4,0,1.1-0.1c-0.3-0.5-0.2-2.4-0.5-2.1
		C39.9,142.6,39.3,142.7,39.2,142.7"/>
	<path class="st0" d="M27.3,116c0.3-0.5,2-0.8,2.3,0.6c0,0.6,0,1-0.1,1.1c-0.1,0-2.5-0.1-2.4-0.2C27,117.1,27.3,116.1,27.3,116"/>
	<path class="st0" d="M17.9,95.2c0.7-1.1,2.7-1.2,2.1,1.1c-0.1,0.2-0.4,1.1-0.5,1.1c0,0.1-2.4-1.2-2.3-1.3
		C17.5,96.1,17.8,95.5,17.9,95.2"/>
	<path class="st0" d="M7.7,97.8c-0.3-0.1-1.6,0.6-1,1.8c0.6,0.4,1.3,0.9,1.4,0.8c0.1-0.1,1-2,0.8-2C8.6,98.1,7.7,97.8,7.7,97.8"/>
	<path class="st0" d="M19.1,123.1c-0.3,0.2-1,1.6,0.3,2.2c0.8,0.2,0.9,0.2,1.2,0.2c0.1,0.1,0.4-2.2,0.3-2.1
		C20.8,122.9,19.4,122.8,19.1,123.1"/>
	<path class="st0" d="M49.5,137.5c0.3-0.9-0.1-1.4-1.2-1c-1.1,0.4-1.2,0.3-1.9,0.4c-0.7,0-1,0.4-0.6,1.4c0.3,0.5,0.9,0.6,1.3,0.7
		c0.2-0.1,0.3,1.1,0.4,1.2l1.8,1.4c0,0-0.7-2.2-0.8-2.9C48.4,138.4,48.9,138.4,49.5,137.5"/>
	<path class="st0" d="M43.2,145.5c-0.9,0.9-1.7,0.5-1.6-0.9c0.1-1.4-0.2-1.5-0.4-2.1c-0.3-0.6-0.2-1.2,0.8-1.3
		c0.6,0,1.1,0.9,1.5,1.3c0.1-0.1,1.8-0.4,2-0.1l0.9,0.9c0,0-1.6,0.3-2.2,0.6C43.8,143.8,43.8,144.6,43.2,145.5"/>
	<path class="st0" d="M29.8,120c0.6-0.9,0.4-1.7-0.8-1.5c-1.2,0.1-1.4-0.1-2.1-0.3c-0.7-0.2-1.2,0.3-0.9,1.2c0.3,0.9,0.8,0.8,1.1,1
		c0.1,0-0.5,1.3-0.3,1.4l1.5,1.3c0.2,0.1,0.4-2.2,0.4-2.7C28.4,120.3,29,120.6,29.8,120"/>
	<path class="st0" d="M19.4,99.6c1.1-0.5,0.8-1.4-0.4-1.7c-1.2-0.3-1.4-0.7-2-1.1c-0.6-0.4-1.4,0-1.4,0.9c0,0.9,0.5,1.1,0.7,1.4
		c0.1,0-0.6,1.3-0.5,1.5l0.8,2.2c0.1,0.4,1.2-3.1,1.2-3.2C17.6,99.5,18.5,100,19.4,99.6"/>
	<path class="st0" d="M9.2,102.3c-0.8-0.2-1.2-0.7-0.6-1.5c0.5-0.8,0.6-1.2,0.9-1.9c0.3-0.7,1.1-0.7,1.4,0.1c0.3,0.7,0.2,1,0.2,1.4
		c-0.1,0.1,1.4,0.6,1.5,0.8l0.3,1.7c0,0.2-2.1-0.9-2.5-1.2C10.3,101.4,10.2,102.1,9.2,102.3"/>
	<path class="st0" d="M22.4,126.3c-0.7,0.2-1.4-0.1-1.1-1.1c0.3-1,0.2-1.5,0.3-2.1c0.1-0.6,0.7-0.7,1.3-0.4c0.6,0.4,0.6,1.1,0.6,1.5
		c0,0.1,1.5,0,1.6,0.1l1.7,1.6c0.1,0.1-2.9-0.4-3.4-0.5C23.2,125.2,23.3,125.7,22.4,126.3"/>
	<path class="st0" d="M53.5,136.2c-0.1,0-1,1.2,0.6,1.1c1-0.1,0.7-0.7,3.3-1.3c1.1-0.3,1.6,0.4,1.9,1c0.3,1-1.2,1.6-1.5,1.3
		c-0.3-0.4-0.3-0.3,0.2-0.4c0.5-0.1,0.7-1.2-0.2-1c-0.9,0.2-4.1,1.5-4.1,1.5s1.1,1.1,3.2,1.1c2.1,0,3.7-1.2,3.8-2.3
		c0.1-1.1-0.6-2.2-2.8-2.5C55.6,134.3,53.6,136.1,53.5,136.2"/>
	<path class="st0" d="M39.6,116.4c-0.1,0.1-2,0.8,0.6,1.2c0.7,0.1,1.6,0.3,2.7,0.7c1,0.4,1.3,0.9,1.4,1.4c-1,1.9-2.3,0.1-1.6,0.3
		c0.6,0.2,1.1-0.7,0.2-0.9c-0.9-0.1-4.6-1.2-4.7-1.2c-0.2,0,0.2,1.7,2.1,2.8c2,1.1,4,1,4.7,0.3c0.7-0.7,1.3-2.4-0.7-3.8
		C42.3,116,39.7,116.4,39.6,116.4"/>
	<path class="st0" d="M60.8,134.4c-0.3,0.6,0.4,0.9,0.7,0.7c1.2-0.3,1.6-1.9,1.5-2.2c-0.1-0.4,0.1-1-1.8-2.3
		c-1.9-1.3-9.1-2.5-9.7-2.3c-0.5,0.4-0.1,1.2-0.1,1.2c0,0.1,5.6,0.9,6.7,1.3C59.3,131.2,63.5,132.4,60.8,134.4"/>
	<path class="st0" d="M50.9,126.2c-0.8,0.3-0.6,0.6-0.2,0.8c0.9,0.5,2.1-0.2,2-1c-0.1-0.8-0.3-0.9-1.1-1.6c-0.8-0.7-5-3.3-5.4-3.2
		c-0.5,0.3-0.5,0.8-0.5,0.8c0,0,2.4,1.6,2.9,1.8C49.1,124.2,51.5,125.5,50.9,126.2"/>
	<path class="st0" d="M58.8,123.4c0.2-0.7,0.6-0.5,1.2-0.2c-0.1,0.3-0.3,1.5-1.1,1.7c-0.8,0.2-3.5-0.9-4.8-1.4
		c-1.3-0.5-7.4-3.3-7.7-3.5c-0.2-0.5,0.1-0.7,0.1-0.8c0.2,0.1,3.8,1.5,4.9,2.1c0.4,0.2,2.2,1.1,4.1,1.7
		C57,123.4,58.4,124,58.8,123.4"/>
	<path class="st0" d="M107.5,111.9c-0.3,0.3-0.7,1.2,0.5,2.2c0.8,1.3-1.1,2.1-0.7,2.2c0.3,0.3,2.6,0.8,3.4-1.7
		c0.8-2.6-1.1-4.1-1.8-4.3L107.5,111.9z"/>
	<path class="st0" d="M130.8,64.2c0.3-0.1,2.3,1.2,2.4,1.3c0.1,0.1,0.9,2.8,1.1,3.6c0.2,0.8,0.3,2.4,0.2,2.6
		c-0.1,0.2-1.9-1.9-2.3-2.9C131.9,68.4,130.5,64.3,130.8,64.2"/>
	<path class="st0" d="M123.4,63.3c0.2-0.1,1.7,0.2,1.7,0.3c0,0,1.1,3.3,1.3,4.4c0.2,1.2,0.7,2.3,0.8,2.8c0.1,0.5-2-1.9-2.3-3
		C124.6,67.3,123.2,63.4,123.4,63.3"/>
	<path class="st0" d="M117.4,65c0.1-0.2,1.6-0.3,1.7-0.3c0,0.1,1.1,3.6,1.6,4.7c0.4,1.5,0.6,1.6,0.6,1.6c0,0.1-2-1.3-2.2-2
		C118.8,68.4,117.2,65.2,117.4,65"/>
	<path class="st0" d="M110.2,66.9l2,0.1c0,0,2.3,4.1,2.7,4.6C113,71.7,109.9,66.9,110.2,66.9"/>
	<path class="st0" d="M104.1,70.2c0.5-0.3,1.2-0.3,1.8-0.4c0,0.2,1.4,2.1,1.6,2.2C107,72.1,105.2,71.7,104.1,70.2"/>
	<path class="st0" d="M96.1,67.8c-0.2-0.3-0.7-1.9,0.4-0.7c1.1,1.2,1,1.6,1,1.5c0,0,0.4,0.8,0,1.3c-0.4,0.5-0.6,0.2-0.6,0
		C96.8,69.9,96.3,68.1,96.1,67.8"/>
	<path class="st0" d="M100,62.8c-0.1-0.2-0.1-2,1.2-0.8c1.3,1.3,2.2,2.5,2.3,2.6c0,0,1.1,1.8-0.7,1.1
		C101.5,64.6,100.1,62.9,100,62.8"/>
	<path class="st0" d="M104.2,57.8c0.1,0,0.5-1.3,0.3-1.6c-0.2-0.4,5.3,5,5.6,5.6c0.3,0.6,0.1,0.9-0.5,1.1
		C108.2,62.1,104.1,57.9,104.2,57.8"/>
	<path class="st0" d="M107.6,51.2c0.1-0.8-0.1-0.9,0.2-1.2c0.3-0.3,3.6,2.8,4.7,4.1c1.1,1.3,3.9,4.4,4.1,4.8
		c0.1,0.4,0.5,1.6-0.6,0.8c-1.1-0.8-3.6-3.8-4.2-4.4C111.1,54.8,107.8,51.4,107.6,51.2"/>
	<path class="st0" d="M112.7,37c0.5-0.6,1-0.4,1.6-0.5c0.7-0.1,9.2,8.5,10.4,10.1c1.4,1.4,8.1,11.6,8.1,12.7c0,0.9,0.1,2-1.5,0.2
		c-0.9-1.8-6.5-10-7.6-11.5C121.7,45.1,114.3,38.1,112.7,37"/>
	<path class="st0" d="M100.6,42.4c-0.1,0-0.2-0.9,0.1-1c0.2-0.1,5.7,3,5.6,3.3c-0.1,0.2,0.5,1.2-0.7,0.6
		C103.8,44.6,100.7,42.3,100.6,42.4"/>
	<path class="st0" d="M101.1,50.4c-0.1-0.6,0.2-1.4,0.4-1.2c0.1,0.1,2.1,1.6,2.1,1.6c0,0,0.4,1.2-0.5,0.8
		C102.2,51.1,101.9,50.7,101.1,50.4"/>
	<path class="st0" d="M98.3,56.5c0-0.3,0.4-0.9,0.6-1c0.2-0.1,1.2,1,1.3,1.3c0.2,0.2,0.2,1.1-0.5,0.7C99,56.9,98.8,56.7,98.3,56.5"
		/>
	<path class="st0" d="M94.2,61.1c0.1-0.2,0.5-0.7,0.7-0.8c0.3-0.1,0.8,1.2,1,1.5c0.2,0.3-0.1,1.2-0.7,0.5
		C94.6,61.8,94.6,61.6,94.2,61.1"/>
	<path class="st0" d="M87.7,59.2c-0.1-0.1,0-1.1,0.5-0.1c0.5,1,0.7,1.6,0.7,1.7c0,0.1,0.1,1.2-0.5,0.3C87.9,60,87.7,59.2,87.7,59.2"
		/>
	<path class="st0" d="M84,61.5c0-0.2,0.3-1,0.6,0c0.3,0.9,0.8,4.5,0.7,5.4c-0.1,1-0.6,0.4-0.7,0.2C84.2,64,84,61.6,84,61.5"/>
	<path class="st0" d="M78.8,63.6c0-0.3,0.3-0.8,0.2-1.1c-0.1-0.3-0.5-0.2-0.7,0.1c-0.2,0.3-0.6,0.2-0.6,4.6c0,1,0,1.8,0.1,2.3
		c0.2,1.9,1.1,1.5,1-0.1C78.8,66.2,78.8,63.7,78.8,63.6"/>
	<path class="st0" d="M70.7,63c0.6-1.2,0.6-0.9,1.2-0.2c0.2,0.3,0.1,0.5,0.1,0.6c-0.1,0.5-0.6,2.8-0.6,3.3c0,0.5,0.1,3.9,0.4,4.9
		c0.4,1-0.1,1.3-0.6,0.9c-0.6-0.4-1.2-4.4-1.2-4.5C70.1,67.9,70.1,64.2,70.7,63"/>
	<path class="st0" d="M68.2,54.5c0.3-0.6,0.7-0.6,0.6,0.1c-0.4,0.9-1.5,2.7-1.6,3.1C67,58.1,66,59,66.4,57.7
		C66.8,56.5,67.9,55,68.2,54.5"/>
	<path class="st0" d="M71.5,54.2c0.1-0.4,0.6-0.7,0.6-0.2c-0.3,1.3-1.5,4.2-1.8,4.6c-0.2,0.3-1.1,1.1-0.6-0.3
		C70.3,57,71.4,54.7,71.5,54.2"/>
	<path class="st0" d="M76.6,52.9c0.2-0.4,0.6-0.5,0.9-0.8c0,1.7-0.8,6.1-1,6.5c-0.5,1-1.2,0.7-1.1,0C75.6,57.8,76.4,53.3,76.6,52.9"
		/>
	<path class="st0" d="M82.7,50.5c0.1-0.1,0.4-0.6,0.8-0.6c0.4,0-0.4,6.9-0.4,7.1c0,0.2-0.4,1.2-0.7,0.4
		C82.3,56.7,82.6,50.6,82.7,50.5"/>
	<path class="st0" d="M88,47.8c0-0.1,1.5,0.1,0.9,1c-0.6,0.9-0.7-0.4-0.6,0C88.3,48.8,88.1,47.9,88,47.8"/>
	<path class="st0" d="M86.1,48.3c0,0,0.9-0.6,1.1-0.4c0.2,0.2,0.7,4.4,0.7,5.7c-0.1,1.4,0,2-0.1,2.9c-0.1,1.1-2.2,2.8-2.1,2.3L86,57
		c0,0,0.7-0.5,0.8-0.8C86.8,55.7,86.4,48.6,86.1,48.3"/>
	<path class="st0" d="M88.1,45.4l-0.1,1.2c0,0.3,3.5,0.5,2,2.3c-1.6,1.8-1.3,1.6-1.3,1.7l0.2,1.3c0.1,0.4,2.1-1.8,2.4-2.5
		c0.3-0.6,0.8-1.9,0.4-2.7C91.4,46,89,45.3,88.1,45.4"/>
	<path class="st0" d="M87.5,39.3l0.1,1c0,0,1.7,0.1,2,0.5c0.3,0.4,0.5,2.3,0.3,2.7c-0.2,0.4-2.5-0.1-2.5,0l0.2,1.1
		c0.7,0.1,1.8,0.3,2.3,0.4c0.4,0.1,1.4-0.2,1.3-1c-0.1-0.8-0.3-3.2-0.6-3.5c-0.3-0.4-0.5-1-1.3-1.1C88.4,39.1,87.5,39.3,87.5,39.3"
		/>
	<path class="st0" d="M80.4,38c-0.1,0.1-0.2-1,0.4-0.9c0.5,0.1,3.3,2.6,4.3,5.8c0.8,2,1.8,1.8,2.1,2.2c0.3,0.6,0.3,0.4-0.1,1.3
		c-0.4,0.9-3,2.2-3.1,2.1L83.9,47c0,0,1.6-0.8,1.1-2.1C84.2,41.2,80.4,38.2,80.4,38"/>
	<path class="st0" d="M54.5,50.5c0.7-0.1,4.4,2.4,4.4,6.4c0,4.1-3.7,6.8-5,8c-1.3,1.2-9.7,5.9-6,13.2c-2.6-1.2-3.2-7.4,0.6-11.4
		c1.7-1.8,2.2-1.9,5.9-5.5c1.6-1.6,2.8-3.3,2.4-4.9c-0.4-1.7-1.9-3.3-3-4.5C53.8,51.6,53.9,50.6,54.5,50.5"/>
	<path class="st0" d="M27.1,62.1c1-0.4,0.7,0,0.9-0.5c0.2-0.5,1.5-0.7,1.7-0.3c0.2,0.4-0.5,1.5-0.8,1.5c-0.1,0.1-1,0.5-0.4,2
		c0.6,0.8-0.3,1.6-0.4,1.7c0.1-0.1-1.5-0.2-1.4-2.1C26,63.6,25.8,62.6,27.1,62.1"/>
	<path class="st0" d="M30.4,63.2c0.2-0.3,0.1-1.3,0.6-1.3c0.3,0,1.1-0.3,1.3,0c0.1,0.2,0,0.6-0.3,1c-0.2,0.3-0.6,0.5-0.9,0.5
		c0.1,0.4-0.1,1.4-0.3,1.8c0.2,0.3,0.4,0.6,0.5,0.8c0.5,1.6-2.3,0.9-1.4-0.8C29.3,64.7,29.1,63.7,30.4,63.2"/>
	<path class="st0" d="M32.7,63.5c0.4-0.2,0.4-1,0.7-1.1c0.3-0.1,1.3-0.1,1.6,0.2c0.1,0.1,0.1,0.7-0.2,1.2c-0.2,0.3-0.6,0.6-1,0.7
		c0,0.4-0.1,1.4-0.4,1.8c0.2,0.4,0.4,0.6,0.5,0.9c0.1,0.4-0.2,0.9-0.3,1c-0.3,0.3-1.1-0.3-1.5-0.6c-0.2-0.2,0-0.8,0.2-1.6
		C31.8,65.2,31.6,64.2,32.7,63.5"/>
	<path class="st0" d="M55.6,55.4c0.3-0.4,1,0.9,0.3,2c-0.7,1.1-6.8,4.8-9.4,8.1c-2.6,3-3.9,10.1,0.8,13.7c2.4,2.3,7,1.1,10.3,1.3
		c3.2,0.2,4.2,2,2.7,4c-1.5,2-1.3,0.2-1.1,0.1c0.7-1.1,0.6-1.7-0.3-2.1c-1.1-0.2-2.8-0.2-3.9-0.1c-4.6,0.6-7.6-0.1-9.7-2.6
		c-5-5.9-3-13.9,2.6-18.4c1.6-1.3,3.9-2.7,6-4C54.8,56.9,55.4,56.2,55.6,55.4"/>
	<path class="st0" d="M35.8,64.8c-1.1-1.1,0.3-0.8,0.5-0.6c0.1,0.1,3.8,1.3,3.9,5.1c0.1,3.8-2.2,6.2-1.7,8c0.5,1.8,4.9,3.9,5.6,5
		c0.3,0.2,1.2,1.8,1.6,4.7c0.8,3.3,1.8,2,2.9,2.9c0.4,0.8,0.3,1-0.9,0.9c-1.4-0.1-2.2-1.2-2.7-2c-0.5-0.9-0.5-3.1-1.4-4.9
		c-0.9-1.8-5-3.8-5.4-4.5c-0.4-0.7-1.7-1.7-0.8-3.9c0.9-2.2,1.8-4.9,1.6-6.2c-0.2-0.9-0.8-2.4-1.6-3.3C36.8,65.3,35.9,65,35.8,64.8"
		/>
	<path class="st0" d="M48.3,72.5c0.2,0.2,0.3,4.3,4.3,4.2c4,0,4.9-0.9,7.7-0.2c4.1,0.6,7.1,7.8,1.7,11.5c-0.4-0.3-0.9-0.6-1.3-0.9
		c0-0.2,2-2,2.5-3.6c0.5-1.6-0.1-4.7-3.1-5.5c-3.6-1-3.4-0.2-7.2-0.2C49.1,77.7,47.2,75.2,48.3,72.5"/>
	<path class="st0" d="M58.6,84.5c0,0.2,0.4-1.4-0.9-0.6c-1.3,0.8-1.6,2.4-1.6,2.9c0,0.5,0.2,1.4,0.6,1.5c0.4,0.1,1.8-0.8,1.8-0.8
		s1.2-1.2,0.1-1.6C57.7,84.9,58.6,84.3,58.6,84.5"/>
	<path class="st0" d="M34.5,67c-0.1-0.1-0.9-2.1,0.6-1c1.3,1.3,2,1.6,1.9,3.9c-0.1,3.5-2.3,5.4-1.8,8.2c0.4,2.8,2.9,3.7,4.1,4.6
		c1.2,1,3.4,1.6,3.4,5.3c0.5,4.2,1.5,4.6,2.6,5.4c1.1,0.8,3.8,0.2,4.6,0l1.8,1.2c0.3,0.2-9.5,5.1-10.1-6.6c-0.3-3.3-4.8-5.4-5.4-6.2
		c-0.6-0.8-3.6-2.7-1.4-7.6C37.7,69,34.6,67,34.5,67"/>
	<path class="st0" d="M71.1,151.1c0.7,0,1.9,0.5,1.6,1c-0.3,0.5-1.3,0.7-1.5,0.6c-0.2-0.1-1.5-0.4-1.5-0.8
		C69.6,151.5,70.4,151.1,71.1,151.1"/>
	<path class="st0" d="M93.8,151.9c-0.7,0-1.7,0.3-1.5,1c0.2,0.7,1.1,0.7,1.5,0.7c0.4,0,1.3-0.3,1.3-0.8
		C95,152.3,94.5,151.9,93.8,151.9"/>
	<path class="st0" d="M83.8,144.9v5.5c0,0.1,2.1,0.8,2.1-0.7l0.1-4.8C86.5,144.7,83.7,143.7,83.8,144.9"/>
	<path class="st0" d="M81.5,144.9v5.6c0,0-2.1,0.4-2.1-0.7l-0.1-4.8C78.9,144.6,81.5,143.6,81.5,144.9"/>
	<path class="st0" d="M71.6,150.6c0.1,0.3,1.5,0.3,1.8,0.9c0,0.2,3-1.6,4.8-2.2c0.2,0,0-1,0-1.4C77,147.7,71.5,150.2,71.6,150.6"/>
	<path class="st0" d="M93.5,151.2c-0.2,0.1-1.5,0.4-1.8,0.9c0,0.2-2.7-2-4.6-2.6c-0.3-0.3-0.1-1.6,0.1-1.4
		C87.9,147.9,93.6,150.8,93.5,151.2"/>
	<path class="st0" d="M80.4,151.6l-1.6-1c0.1-0.3-2.6,2-4.2,2.7c-1.6,0.8-3.3,4.2-2.8,4.6l2.5-1c0-0.4,1.3-2.4,2.5-2.9
		C77.9,153.7,80.4,151.9,80.4,151.6"/>
	<path class="st0" d="M85.7,151.5l-2.6,0.2c0.1-0.3-1.4,1.8-2.9,2.7c-1.5,0.8-3.9,2.9-3.4,3.4l1.3,1.5c0.2-0.1,2.7-3.2,3.8-3.7
		C83,155.1,85.7,151.8,85.7,151.5"/>
	<path class="st0" d="M82.9,156.3c0.1-0.5,1.2-1,1.6-1.2c0.4-0.1,0.8,0.7,1.9,1.1c1,0.4,2.2,0.6,2.9,1.6c-0.3,1.1-1.2,1.8-1,1.9
		c-0.1,0-1.4-1.2-2.7-1.5C84.2,157.9,83.1,156.8,82.9,156.3"/>
	<path class="st0" d="M85.5,153.4c0,0,1.1-1.2,1.1-1.6c0-0.5,1.3,1.1,3.4,1.6c2,0.6,4.5,3,4.3,3.7l-2.1,0.2c-0.2,0-1.5-1.8-3.2-2.1
		C86.5,154.6,85.5,153.4,85.5,153.4"/>
	<path class="st0" d="M52,104c-0.1,0,0.5-0.2,0.6-1.2c-0.3-0.7-2.1-0.3-2.4-0.3c0.2-0.4-1.3-1.8-2.4-1.3c-0.2,0.2,1,0.7,0.5,1.6
		c-1.7,0.9-4.1,7.3-3.5,8.9c0.2,1.5-1.5,1.2-1.5,1.4c0.2,0.2,0.7,1.5,3.4,0c0.6,0,2.7,1,4.9,1.9c0.5-0.3-0.5,1.2-1,1.4
		c-0.2,0.2,1.2,1.1,3.2-0.6c1.5-0.3,2.8,0,7.5-1.1c0.4-0.5,0.2-1.2,0.3-1.7c-1.7,0.3-6.9,1.2-8,0.8c-2.5-0.8-5.2-2-5.8-2.3
		c-0.7-0.5-1.3-0.6-1.1-1.7c0.1-1.1,1.3-3.8,1.7-4.6c0.4-0.8,0.3-1.2,1.7-1.3C51.8,103.7,52.1,104,52,104"/>
	<path class="st0" d="M79.8,110.9c0.1,0.1,0.1-0.5,0.2-1.4c0-0.2-1.4-0.9-2.5-2c0.2-0.8,0.1-2.4-1.8-2.8c-0.4-0.3,0.5,1.6-0.7,1.9
		c-1-0.3-3.3-0.8-3.9-1.1c-0.5-2.2-2.5-2.4-3.3-1.9c-0.2,0.1,2.3,0.9,0.5,1.9c-1.3,0-2.3,0.7-2.4,0.6c0-0.5-1.9-1.3-2.9-0.3
		c0,0,2.1,0.8,1.5,2.4c-0.2,1-0.7,2-1,3.1c-0.9,2.7-1,5-0.5,5.7c0.6,1.1,1.3,0.9,2.9,1.8c0.7,0.4-1.3,1.5-1.2,1.5
		c1.3,0.3,3.1,0,3.4-1.3c1.2,0.2,2.5,0.7,4.6,1c1.1,1.1-1.8,2-1.1,1.8c1.5-0.2,2.6,0,3.4-1.5c0.5,0.3,1.8,0.1,3.8,0.2
		c0.2-0.2,0,1.3-0.5,1.4c0.5,0.4,2.7-0.4,2.8-2.4c0.7-0.2,1.4-0.5,2.1-0.8c0.1-0.9,0.4-2,0.3-2.1c-4.7,2.2-7.4,2.9-16.7-0.1
		c-0.9-0.4-2.1-0.3-2.1-1.6c-0.1-1.3,1.2-5.6,1.7-6.3c0.6-0.7,1.2-1.4,2.6-1.6C72.1,106.6,78.9,109.6,79.8,110.9"/>
	<path class="st0" d="M85.8,118.1l-1.1-1.2c-0.4-0.5-3,8.8-1.2,12.5l7.2,0.2c0.4-1,0.1-6.2,4.4-6.5c2.9-0.2,4.7-1,4.7-1
		c0.1,0.1,0.6,1.6,2.7,0.8c-0.1-0.2-1.4-0.9-0.3-2.3c2-1.4,5.3-2.9,3.9-7.3l-1.7,0.8c-0.1,0,0.3,2.2-1.1,3.5
		c-2.5,1.6-1.8,1.8-4.3,2.8c-2.5,0.9-8,1-8.9,4.3c-0.9,3.3-0.8,3.1-0.8,3.2l-4.8-0.2C83.6,125.1,85.6,118.1,85.8,118.1"/>
	<path class="st0" d="M88.2,108.4c-0.1,0.6,0.2,1.2-0.2,1.4c-0.4,0.2-0.6,0-0.6,0.5c0,0.4-1.2,1-1.6,0.1c-0.3-0.9-0.1-2.8-0.1-3
		c0-0.2,0.4-1.7,2.7-1.1c1.3,0.5,3.1,0,4.2-0.4c1-0.5,2.4,0.1,2,1.4c-0.7,1.1-2.8,2.8-3.9,3.7c0.1-0.2-1,1.1,0.6,0.6
		c1.7-0.9,4.5-4.2,4.4-4.3c-0.1-0.1,1.9,0.8,3.1-1.5c0.2-0.1,0.8,1.4,1.6,1.8c0.3,0.1,0.6,0.6,0.6,0.7c0-0.1,0.4,0,0.6,0.7
		c0.2,0.7,1.3,1.5,1.6,1.2c0.3-0.2,1.1-0.7,1.2-1c0.1-0.3,0.4-0.5-0.2-0.8c-0.6-0.3-1.4-0.6-2.1-0.9c-0.7-0.4-2.4-2.9-2.3-2.9l1.3,0
		c0,0,1.2,1.2,1.3,1.6c0.1,0.4,1.4,0.8,2.2,0.7c0.8-0.1,3.9,0.7,3.1,2.9c-0.3,0.8-0.9,1.2-1.4,1.6c-0.9,0.7-1.7,1.3-2.5,1.5
		c-1.9-0.3-2.4-1.4-2.4-1.3c0,0.1-0.4-0.5-1-0.5c-0.5,0.1-1.1-0.3-0.9-0.7c0.1-0.4,0.2-1,0.2-1h-0.6c0,0-0.7,1.7-1.7,1.6
		c-0.9-0.1-0.4-1.5-0.6-1.6l-0.8-0.2c-0.1,0-2.3,2.8-3.1,3.1c-0.2,0.1-0.6,0.3-0.7,0.6c-0.1,0.5-0.3,0.8-0.7,0.7
		c-0.4,0.5-1,0.8-1.7,0.5c-1.3-0.7-1.6-2-1.8-2.7c-0.2-0.7,1.4-2.5,2.5-1.9c0.5-0.2,1.8-1.4,2.4-2.1c0,0.2,1-1.2-0.3-0.8
		c-1.2,0.5-2.9,1-3.4,0.8C88.9,107.8,88.3,107.8,88.2,108.4"/>
	<path class="st0" d="M106.3,119.1c0-0.4,0.7-1,0.8-1.2c0.1-0.2,3,0.3,3.6-0.9c0.8-1,1.7-2.7,2.3-3.8c0.4-0.1-1.4-1.4,0.5-3.1
		c0,0,0.2,1.5,1.1,1.4c1.3-0.1,1.7-0.8,1.8-0.6c0.1,0.2,0.1-2.3,2.3-2.5c0.1,0.4-0.6,1-0.2,1.7c1,0,2.7,0.7,2.7,1.7
		c-0.4,0.6-0.7,0.9-0.7,0.9s-0.7-1-1.8-0.9c-1.1,0.1-2.6,0.9-3.1,1.1c-0.5,0.2-1.6,0.9-2.1,2.2c-0.5,1.3-1.9,3.4-1.9,3.3
		c0-0.2-0.7,0.8-2.1,0.9C108.6,119.1,106.3,119.1,106.3,119.1"/>
	<path class="st0" d="M105,120.2c-0.3-0.3-1.7,1.1-1.6,1.2c0.8,0.3,4.3,1.2,4.3,1.3c0,1.3,0.4,2.3,2.1,2.4c0-0.1-0.7-1.7,0.1-1.9
		c0.9,0.1,2.4,0.5,4.3,0.4c1.1-0.1,2.1-0.2,3.8-0.8c0,0.1,1.5,2,3.6,0.7c-0.1-0.2-1.2-0.1-1.2-1.2c1-1.4,0.9,0,3.4-2.4
		c0-0.3,2.1,1.3,3-1.5c-0.2-0.1-1.2,0.6-1.9-0.1c-0.7-1.1,0-1.6-0.4-1.5l-1.6,0.2l-0.3,1.7c0,0-0.3,0.9-4.2,2.1
		c-3.8,1.3-3.9,1.5-6.1,1.2C111.8,121.7,105.2,120.4,105,120.2"/>
	<path class="st0" d="M101,98.1c-0.1-0.2,0,0.8,0.2,1.4c0.3,0.6,4.7,5.5,5.6,5.9c0.9,0.4,2,0.6,2.4,0.3c0.4-0.3-2.1-1.1-2.2-1.4
		C106.2,103.9,101.2,98.3,101,98.1"/>
	<path class="st0" d="M99.9,94.4c-0.1,0.3,0.1,1.1,0.3,1.4c0.2,0.3,7.5,8.6,10.3,9.9c2.8,1.4,3.4,0.8,3.9,0.7c0.5,0,0.2-1.1-0.7-0.9
		c-0.9,0.2-3-0.8-3.8-1.5C109,103.4,100,94.1,99.9,94.4"/>
	<path class="st0" d="M101.5,93.4c0-0.4-1.2-0.4-0.8,0.4c0.6,0.7,9.4,9.5,9.7,9.7c0.3,0.2,1.5,1,1.9,0.7c0.4-0.3-0.1-0.3-0.4-0.6
		C111.5,103.5,101.7,93.7,101.5,93.4"/>
	<path class="st0" d="M102.5,92.2c-0.1-0.5-1.2-0.3-0.6,0.6c1.1,1.3,8.9,8.7,11.9,11.4c2.9,2.4,3.8,1.8,6.6,0.8
		c-0.1-0.3-0.7-0.7-1.2-0.9c-0.4,0.2-1.1,0.4-1.7,0.5c-0.8,0.1-1.6-0.3-2.2-0.8C114.7,103.6,102.7,92.4,102.5,92.2"/>
	<path class="st0" d="M102.9,90.3c-0.1-0.1-0.8,0-0.3,0.8c0.6,0.7,10.6,9.2,12.5,10.8c1.9,1.6,2.6,1.3,2.9,1.1
		c0.4-0.2-2.9-2.5-3.3-2.8C114.3,99.8,103.1,90.4,102.9,90.3"/>
	<path class="st0" d="M103.4,85.4c0,0.1-0.2,0.6-0.1,1.1c0.7,0.6,15.7,12.7,17.1,13.7c1.4,1.1,2.7,2.1,3.2,1.3
		c0.4-0.8-1.9-2-2.5-2.6C119.4,97.9,103.6,85.5,103.4,85.4"/>
	<path class="st0" d="M103.2,84c-0.2-0.1,0.1-1.2,0.2-0.9c0.1,0.3,23,16.6,24.1,17.1c1,0.6,1.9,1.4,0.9,2.6
		c-1.4,1.2-5.1,1.7-5.1,1.7c0,0-1.6,0.1-3.1-1c-1.4-1.2-17.2-14.4-17.1-14.3c0,0.2,0.1-1.3,0.4-1.2c0.4,0,16.6,13.4,17,13.7
		c0.4,0.3,1.6,1.2,2.7,1.2c1.2-0.1,2.2-0.1,3.3-0.5c0.9-0.8,0.1-0.9,0-1.2c-0.2-0.3-9.3-6.6-9.6-6.8C116,93.8,103.3,84.1,103.2,84"
		/>
	<path class="st0" d="M97.3,96.3c-0.2,0-1.1-0.1-1.1,0.1c0,0.1,1.3,4.4,2.4,5.8c1.2,1.5,2.5,1.8,2.3-0.2c-0.2-2-1.7-7.2-2-7.4
		c-0.4-0.2-0.7,0.8-0.7,0.9c0,0,1.3,4.2,1.4,4.8c0.1,0.7-0.1,1-0.7,0.5C98.3,100.1,97.3,96.4,97.3,96.3"/>
	<path class="st0" d="M94.2,97.6c0-0.1,0.4-1.5,0.6-1.4c0.2,0.1,2.6,5.8,2.7,7.1c0.1,1.3,0,2.8-0.9,2.9c-0.9,0.1-1.9-0.9-2.6-1.5
		c-0.7-0.7-4.1-5.9-4.2-6.9c0,0,1,0.7,2,1.1c0,0.1,2,4.3,3.3,5.1c1.4,0.7,1.3-0.4,1.2-1.4C96.2,101.6,94.3,97.7,94.2,97.6"/>
	<path class="st0" d="M88.7,99.3c0,0,0.4-0.9,0.5-0.8c0.1,0.1,1.7,3.2,1.8,3.4c0.1,0.2,0.1,0.9-0.5,0.3
		C89.9,101.7,88.8,99.4,88.7,99.3"/>
	<path class="st0" d="M92.9,98.9c0.1-0.2,0.3-0.6,1-0.7c0.2,0.2,1.4,2.9,1.6,3.6c0.2,0.7-0.1,1.2-0.8,0.3
		C93.7,100.8,93,99.2,92.9,98.9"/>
	<path class="st0" d="M86.8,99.8c0-0.1,1.1-0.2,1.3,0.1c0.2,0.2,2,3.2,2.3,3.4c0.3,0.3,0.7,0.4,1,0.1c0.3-0.3,0.5-0.8,1,0.4
		c0.1,1.1-1.6,1.4-1.9,1.1C90,104.7,86.8,99.9,86.8,99.8"/>
	<path class="st0" d="M79,91.6c0,0,0.3,2.1,0.5,2.8c0.2,0.7,0.5,0.6,0.5,0.1c0-0.5,0-1.4,0-2C79.9,92.3,79.6,91.7,79,91.6"/>
	<path class="st0" d="M70.5,85.6l0-0.7c0,0-2.6-1.3-2.9-1.1c-0.3,0.2,1.1,2.8,1.3,3c0.2,0.2,2.1,1.3,2.4,1.2c0.2,0,0-0.5,0-0.6
		c-0.3-0.4-0.7-0.5-1.3-0.9C69.5,86.2,68.6,84.7,70.5,85.6"/>
	<path class="st0" d="M73.6,86.1c0.2-0.1,0.7,0.5,0.9,1c0.2,0.5,0.1,1.2-0.1,1.2c-0.2,0.1-0.5-0.4-0.6-0.8
		C73.7,87.2,73.4,86.2,73.6,86.1"/>
	<path class="st0" d="M73.2,92.5c-1.2-0.4-2.7-1.2-2.8-1.3c-0.1-0.1-0.6-0.7,0.3-0.5C71.8,90.9,75.5,92.5,73.2,92.5"/>
	<path class="st0" d="M76.8,94.2c0,0,0.1,1.1,0,1.1c-0.1,0.1-2,0.5-2.6,0.7c-0.6,0.2-1.4-0.1-0.5-0.7C74.4,94.7,76.7,94.1,76.8,94.2
		"/>
	<path class="st0" d="M79.6,87.7c0-0.2-0.1-0.6,0.1-0.9c0.3-0.2,6.1,7.9,6.2,8c0,0.1,0.1,0.6-0.4,0.2C84.6,94,79.8,87.9,79.6,87.7"
		/>
	<path class="st0" d="M72.5,84.7c-0.2-0.4-0.8-1-1.2-1.1c-0.2-0.1,1.2,7.2,3.6,8.1c0.5,0.2,1.1,0.2,1.5-0.4c0.3-0.6,0.2-3.1,0.1-3.1
		c-0.1,0-0.7-0.5-0.9-0.4c-0.2,0.1,0.4,2-0.3,2.4c-0.7,0.4-1.4-1-1.5-1.3C73.4,88.4,72.5,85.6,72.5,84.7"/>
	<path class="st0" d="M77.3,89.3c0.4,0.1,0.6,0.4,0.8,0.8c0.1,0.8,0.2,4.2,1.4,6.2c0.7,0.8,1.1,0.3,1.1-0.2c0.1-0.8,0.1-1.7,0.1-2.5
		c0.1-0.1,1,0.9,1,1c-0.1,0.6-0.2,2.7-0.3,3.1c-0.8,1.8-2.7-0.2-3.1-1.2C77.9,95.5,77.4,91.9,77.3,89.3"/>
	<path class="st0" d="M79.1,88.5c0,0-1.1-0.2-1.3,0c0.2,0.3,2.4,2.9,4.2,5c1.9,2.1,2.8,3.5,3.7,4.5c0.9,1,1.8,1.4,2.4,0
		c0.4-1.7-0.6-3.1-0.7-3.5c-0.1-0.4-3.6-5.5-3.7-5.6c-0.2-0.1-0.9-0.2-1.2-0.1c0.2,0.3,3.7,4.7,4.4,6.4c0.5,1.3,0.1,1.5-0.1,1.6
		c-0.4,0.1-0.8,0-1.6-0.9C84.3,94.5,79.2,88.5,79.1,88.5"/>
	<path class="st0" d="M76.2,93.4c0.5-0.2,0.9-0.9,0-0.9c-2.2,0.2-4.7,2.2-5.8,3.9c-0.7,1-0.5,2.4,1.6,2.1c2.1-0.4,4.3-1,5.1-1.3
		c0.5-0.2,0.4-1-0.3-1c-0.7,0.1-3.8,0.8-4,0.9C72.6,97.2,71,97.4,72,96C73,94.8,75.7,93.6,76.2,93.4"/>
	<path class="st0" d="M72.1,89.9c0-0.1,0.1-0.7-0.1-0.8c-0.3-0.1-1.6-0.6-2.4-0.2c-0.7,0.4-3.2,2.5-1.7,3.2c1,0.5,3.8,1.6,3.9,1.6
		c0.1,0,0.6-0.6,0.6-0.7c0-0.1-3.8-1.3-3.5-2.2c0.2-0.3,0.4-0.8,1.3-1.2C70.6,89.5,71.5,89.7,72.1,89.9"/>
	<path class="st0" d="M70.3,94.9c0.2,0,0.4-0.2,0.6-0.5c0.2-0.3-3.5-1.4-4.2-1.5c-0.7-0.1-1.6-0.1-1.9,0c-0.3,0.1-2.5,1.4-1,1.7
		c1.5,0.3,4.8,1.2,5.5,1.5c0.3-0.1,0.6-0.7,0.5-0.8c-0.2-0.2-3.2-1.1-4.1-1.4c-0.6-0.2-0.3-0.5,0.4-0.6C68,94,70.1,94.8,70.3,94.9"
		/>
	<path class="st0" d="M65.3,85.8c0,0,0.6-1.3,0.8-1.4c0.4,0.3,2,1.7,1.8,3.3c-0.2,1.5-0.6,1.9-0.9,2.2c-0.2,0.3-2,1.5-2.4,1.7
		c-0.2,0.1-2.2,2-2.4,2.2c-0.2,0.2-1.2,0.8-2.1,0.2c-0.9-0.6-1-1.2-1.3-1.2c-0.3,0-1.8-0.4-2.1-2c-0.3-1.5,2.5-2.6,2.9-2.6
		c0.5,0.1,1.7,0.2,1.5,1.7c0.2,0,0.6,0.6-0.4,0.6c-0.8-0.2-0.9-0.4-0.9-0.4c-0.2-0.1-1.3-0.4-1.1,0.6c0.1,0.3,1.3,0.9,1.7,1.5
		c0.4,0.1,0.4,0.2,0.8,0c0.4-0.1,1.7-1.9,3.1-2.6c1.2-0.8,1.7-1.2,1.7-2.2C66.3,86.7,65.5,85.9,65.3,85.8"/>
	<path class="st0" d="M55.3,83.8c1-0.1,1.1-0.3,0.8,0.4c-0.3,0.7-1,0.5-0.9,2.5c0.1,2,0.6,1.5,0.7,2c0.1,0.5,0.4,0.2,0,0.9
		c-0.3,0.7,0.4,2.2,0.3,2.1c-0.1-0.1-1,0.4-1.8-0.6c-0.8-1-0.9-1.5-0.7-2.4c0.2-0.8-0.7-2.1-0.6-3.1C53.2,84.7,54.3,83.9,55.3,83.8"
		/>
	<path class="st0" d="M58.6,93.4c0,0-1.7-0.8-1.9-1c-0.2-0.2-1.4,0.1-1.3,0.3c0,0.2,0.7,1,1.9,1.3C58.6,94.4,58.6,93.4,58.6,93.4"/>
	<path class="st0" d="M56.1,94.4c0-0.1-1.3-0.9-1.4-1.1c-0.1-0.2-1,0.4-1,0.4s0,0.7,0.9,0.8C55.4,94.7,56,94.4,56.1,94.4"/>
	<path class="st0" d="M52.9,94.1l1.2,0.9c0,0-0.7,0.2-1,0.2c-0.3-0.1-1-0.5-1-0.7C52.1,94.2,52.8,94.1,52.9,94.1"/>
	<path class="st0" d="M50.2,88c0.3,0,0.9,1.2,1,2.1c0.1,0.8-0.1,1.8,0.3,1.9c0.4,0.1,0.4,1.3,0.7,1.6c0.3,0.3-0.7,0.1-1.3-0.3
		c-0.6-0.4-0.9-1.5-0.8-2.4c0.1-0.9-0.7-1-0.3-2C50.1,88.1,49.9,88,50.2,88"/>
	<path class="st0" d="M52.1,85.6c0.3,0,0.3,1.7,0.7,2.7c0.3,1,0,0.9,0.2,2.2c0.2,1.4,1.6,1.5,1.4,2c-0.2,0.5-1.3,0.6-1.8,0.1
		c-0.6-0.6-0.8-1.4-0.7-2.3c0.1-0.9-1.1-2.5-0.9-3.3C51.3,86.1,51.8,85.6,52.1,85.6"/>
	<path class="st0" d="M74.6,53.6c0.4-0.4,0.9-0.2,1-0.1c-0.1,0.2-1.2,5.3-1.4,6.1c-0.2,0.8,0,1.2,1,1.1c0.9-0.1,0.9,0.2,1.4-0.1
		c0.6-0.3,0.5-0.7,0.7-1.2c0.2-0.6,1.2-6.3,1.2-6.7c0-0.4,1.3-0.7,1.3-0.2c0,0.6-1,7.1-1.2,7.4c-0.2,0.3-0.2,1.6-1.3,2
		c-1.1,0.4-3.2,0.6-3.5,0.5c-0.4-0.1-1.8-0.1-1.3-1.9C72.9,58.6,74.5,53.9,74.6,53.6"/>
	<path class="st0" d="M80.8,51.7c0.3-0.4,0.8-0.7,1.1-0.7c0,0.1-0.5,7.8-0.4,8.1c0.1,0.3,2.1-0.2,2.4-1.5c0.3-1.1,0.6-6.7,0.5-7.9
		c0-0.3,0.6-0.9,0.9-0.7c0.3,0.2-0.2,8.4-0.3,8.5c0,0.1-0.1,1.5-0.6,2.1c-0.5,0.6-2.6,1.6-3.1,1.4c-0.5-0.1-1.3,0-1.2-1.8
		C80.2,57.4,80.8,51.8,80.8,51.7"/>
	<path class="st0" d="M89,56.2l-0.1-2.5c0-0.3,1.6-1.1,3.5-4c0.9-1.3,0.6-3.1,0.5-3.5c-0.1-0.5-1.1-7.2-2.7-10.5
		c-0.9-1.8-1.2-2.2-2.3-2.8c-1.1-0.6-6.1-3.1-6.3-3.4c-0.2-0.3-2-0.8-1.9-3c0.1-2.1,0.6-2.9,2.7-3.4c2.1-0.5,9.9,0.6,10.7,0.7
		c0.8,0.1,7.1,1.5,11.5,3.6c0.5,0.2,6.1,3.2,8.8,4.5c0.5,0.2,1.3,0.2,2.1,0c0.8-0.1,2.2,0.2,1.4,1.3c-0.8,1-2.8,2.5-5.5,2.6
		c-2.6,0.1-4.1-0.7-4.4-0.8c0,0.1,0.4-1.3,0.3-2.3c0.1-0.4,1,0,1.1,0c0,0-0.3,1.4,1.5,1.7c0.4,0.1,3.4,0.3,2.3-1
		c-0.3-0.3-4-2.7-7.9-4.5c-3.4-1.6-7.3-2.8-8.8-3.2c-3.2-0.7-8.9-1.6-11.6-1.3c-2.1,0.2-1.8,1.7-2,1.9c-0.3,1.6,1,2,2.5,2.4
		c1.5,0.5,5.1,2,5.9,3c0.8,0.8,2.3,2.7,3.4,7c1,4.3,1.2,6.2,1.3,7.2c0.1,1,0.1,3.6-0.3,4.3C94.2,50.8,90.1,55.7,89,56.2"/>
	<path class="st0" d="M84.6,27.6c-1.1-0.4-1.7-1-0.6-1.3c1.8-0.4,6.4,0.5,6.7,0.7c1.4,0.6,3.9,2.9,4.5,4.1c1.1,1.4-0.5,1.5-0.5,1.5
		s-2.2-0.1-2.5-0.4c-0.3-0.2-1-1.2-1-1.2s1.3,0.1,1.7,0c0.4-0.1,0.8,0.1,0.3-0.4c-0.5-0.5-1.9-2-2.4-2.2
		C89.9,27.9,86.4,27.7,84.6,27.6"/>
	<path class="st0" d="M95.7,27.6c-0.1-0.1-1.9-0.5-2.2-0.3c0.5,0.8,2.9,3.2,3.2,3.5c0.3,0.3,3.2,1.4,3.8,1.4c0.7,0,0.6-0.1,0.6-0.6
		c0-0.6-0.8-2.6-0.9-2.6c-0.1,0-2-0.8-1.9-0.4c0.2,0.4,0.8,1.5,0.5,1.5c-0.3,0-0.1,0.2-1.1-0.2C97.1,29.4,95.9,28,95.7,27.6"/>
	<path class="st0" d="M103,31.1c-0.2-0.4-0.2-1.3-0.9-1.4c-0.7-0.1-0.7-0.1-0.7-0.1s0.6,1.6,0.5,2.2c0,0.5-0.2,0.8,0.4,1.1
		c0.6,0.3,2.2,1.3,2.6,1.3c0.4,0.1,1.3,0,1.3-0.5c0-0.5,0.1-2,0.1-2s-1.5-1.2-1.5-0.7c0,0.5,0,1.2,0,1.2
		C104.6,32.7,103,31.9,103,31.1"/>
	<path class="st0" d="M98.3,33.6c-0.3-0.4-0.6-0.7-0.5-1.3c1.9,0.4,9.8,4.2,10.4,4.8c0.5,0.5,1.8,0.9,1.6,3
		c-0.2,2.1-0.7,2.3-1.1,2.3c-0.5,0-0.6-0.2-1.8-1.1c-1.2-0.9-6.1-3.7-7.4-4.3c-0.2-0.2-0.3-0.9-0.3-1.3c0,0,4,1.6,7.8,4.1
		c1.4,0.5,1-1,0.2-1.7C106.9,37.8,98.6,33.8,98.3,33.6"/>
	<path class="st0" d="M100.1,39.8c-0.2-0.4-0.3-0.9-0.3-1.5c1.2,0.4,7.4,4.3,8,4.9c0.7,0.6,1,0.4,1.1,1.9c0.1,1.4-1.2,3.7-1.6,3.7
		c-0.3,0-0.8-0.1-1.7-0.6c-0.9-0.5-3.4-2.2-4.3-2.7c-0.4-0.2-0.3-1.1-0.3-1.6c1.2,0.6,4.4,2.9,5.4,3c0.9,0.1,1.2-1.9,0.6-2.9
		C106.9,43.5,100.3,39.8,100.1,39.8"/>
	<path class="st0" d="M101.2,48c0-0.3,0.1-0.6,0.1-1.1c0.8,0.1,4.6,3.1,4.8,3.5c0.2,0.5,0.8,0.6,0.4,1.7c-0.4,1.1-0.9,2-1.5,2.5
		c-0.7,0.6-1.2,0.1-1.7-0.3c-1-0.8-2.2-1.4-2.8-2c0-0.1,0.4-0.9,0.4-1.2c0.6,0.4,2.4,1.6,3.1,1.6c0.7-0.1,0.7-1.2,0.8-2
		C104.8,50.4,101.4,48,101.2,48"/>
	<path class="st0" d="M99.4,54.6c0.1-0.2,0.3-0.5,0.5-1.1c0.8,0.4,3.1,2.3,3.2,2.7c0.1,0.4,0.2,0.6,0,1.3c-0.2,0.7-1.3,2.5-2.1,2.9
		c-0.8,0.4-1.6-0.2-2-0.6c-0.9-1-1.5-1.3-2-2c-0.1-0.3,0.4-0.8,0.7-0.9c0.5,0.5,1.9,1.5,2.5,1.6c0.6,0,1.1-0.9,1.4-1.7
		C101.7,56.6,99.7,54.6,99.4,54.6"/>
	<path class="st0" d="M95.7,59.3c0.1-0.2,0.3-0.2,0.5-0.8c0.7,0.4,2.6,2.9,2.7,3.3c0.1,0.4,0.1,0.6-0.3,1.3
		c-0.4,0.7-1.4,1.6-2.3,2.2c-1,0.7-1.1,0.4-1.6-0.4c-0.6-1.1-1.1-1.5-1.7-2.6c0-0.2,0.3-0.4,0.5-0.7c0.5,0.6,1.4,1.8,2,2
		c0.7,0.1,1.6-0.9,1.9-1.7C97.5,61.8,95.9,59.4,95.7,59.3"/>
	<path class="st0" d="M93.1,33.2c0,0.1-0.5,0.9,0.7,1.2c1.1,0.4,2.3,0.5,2.4,1c0.1,0.5,0.2,0.7,0.1,0.8c-0.1,0.2-1.4,0.2-2-0.2
		c0,0-0.1,1.4,0.4,1.5c0.5,0.1,1.9,0.6,2.3,0.7c0.5,0.2,1-0.3,1.1-1c0.1-0.7-0.7-3.4-1.4-4.4C95.7,33.4,93.5,33.3,93.1,33.2"/>
	<path class="st0" d="M94.9,38.9c-0.1,0-0.6,1,0.7,1.5c1.5,0.5,2.1,0.5,2.3,1.1c0.2,0.9,0.3,2.1-0.1,2c-0.4-0.1-1.5-0.5-2.2-0.9
		c0,0,0.1,1.6,0.4,1.8c0.3,0.2,2.2,1.3,2.6,1.5c0.5,0.2,1.1,0.2,1.2-0.7c0.1-0.9-0.6-5.1-1.4-6.3C97.8,39.6,95.5,38.7,94.9,38.9"/>
	<path class="st0" d="M96.2,45.6c0,0.2-0.5,0.9,0.1,1.6c0.7,0.8,2,1.2,2,1.9c0,0.7-0.3,1.1-0.6,1.4c-0.2,0.3-1.7-1-1.7-1
		c0,0.1-0.9,1.6-0.6,1.8c0.3,0.3,1.3,1.2,1.7,1.4c0.5,0.2,1.2,0.2,1.7-0.5c0.5-0.7,1.3-3.8,1.2-5.1C99.3,47.7,96.9,45.7,96.2,45.6"
		/>
	<path class="st0" d="M94.8,52.2c0.1,0.1-0.9,0.3-0.7,1c0.4,0.8,1.8,1.5,1.6,2c-0.2,0.5-0.7,1-1.1,1c-0.3,0.1-1.9-1.7-1.9-1.6
		c0,0.1-0.9,0.5-0.7,0.8c0.2,0.3,1.2,1.6,1.5,1.9c0.4,0.3,0.8,1,1.5,0.7c0.7-0.3,3-2.8,3.2-3.8C96.8,54.2,95.7,52.9,94.8,52.2"/>
	<path class="st0" d="M91.4,55.2c0-0.1-1,0.6-0.6,1.6c0.3,0.4,1.5,1.7,1.5,2.3c-0.1,0.4-0.5,0.5-0.7,0.9l0.9,1.2
		c0.2,0.3,1.9-1.7,2.4-2.4C93,58.6,91.3,55.3,91.4,55.2"/>
	<path class="st0" d="M97.6,71.5c0,0,0.1,1.2,0.2,1.4c0.1,0.3,2.1-1.7,2.7-2.2c0.5-0.4,1.1-1.2,0.5-1.8c-0.6-0.7-2.2-3-2.7-3.3
		c-0.5-0.3-1,0.5-1.1,0.6c-0.1,0.1,2.1,2.3,2.2,2.6c0.1,0.3,0.3,0.4-0.2,1.1C98.3,70.9,97.6,71.5,97.6,71.5"/>
	<path class="st0" d="M99,64.8c0-0.9,0.6-0.9,0.7-0.8c0.1,0.1,2.1,3,3.5,3c0.5,0,0.9,0,1.2-0.1c0.7-0.3,1-0.9,0.8-1.5
		c-0.4-0.9-2.7-3.5-3.3-3.9c0-0.2,0.5-0.8,0.7-0.7c0.2,0.1,3.8,3.5,4.4,4.7c0.6,1.3-0.6,2.5-1.2,2.9c-0.6,0.5-2.3,0.7-3.1,0.2
		C101.8,68.2,99.9,66.3,99,64.8"/>
	<path class="st0" d="M103.3,59.9c0.2-0.6,0.6-0.8,0.7-1.1c0-0.1,4.4,4.5,5.5,4.9c1.3,0.5,2.5-0.6,2.2-1.3c-0.4-0.9-4.9-6.1-5.7-6.7
		c0-0.2,0.4-0.8,0.7-0.8c0.3,0,6.1,5.9,6.8,8.2c0.7,2.3-3.4,2.7-4.2,2.4C107.9,65.2,104.1,61,103.3,59.9"/>
	<path class="st0" d="M107.3,54c0.2-0.6,0.3-1.2,0.3-1.4c0-0.3,7.4,7.7,8.4,8.5c1.7,1.3,2.8,0,2.2-1.3c-1.2-2.4-8.4-10.3-9.3-10.6
		c0.2-0.1,0.6-0.8,0.7-1.2c0.1-0.4,9.6,8.7,10.5,12.6c0.8,3.3-3.5,3.4-4.5,2.2C114.7,61.9,108.2,55,107.3,54"/>
	<path class="st0" d="M109.8,46.5l0.3-1.8c0-0.3,4.8,4.2,7.5,7.3c2.7,3.1,3.4,4.7,5.7,7.3c1.8,1.6,1.7,0,1.2-0.7
		c-2.1-4.1-12.8-15.8-14-15.7l0.4-1.8c0.1-0.6,13,11.6,15.8,18.8c1.3,3.3-3.5,2.3-4.4,1c-1.4-2-4.4-6.1-5.4-7.2
		C111.9,48.4,110.3,47,109.8,46.5"/>
	<path class="st0" d="M110.6,37.6l0.5,2c1.2,0.7,9.5,7.9,13.4,14.3c4,5.2,4.2,10.7,14.1,11.1c1.2-0.3,0.3-1.2,0.4-1.2
		c0,0-2-1.8-2.6-3.3c-0.6-1.5-3-6.8-6.6-12.3c-3.6-5.5-9.8-11.4-12.7-13.4l-1.2,0.8c7,6,13.3,13,17.2,21.2c2,4,2,4,2,4.2
		c0,1.3-0.5,1.4-1.9,0.8c-4.5-1.9-4.1-4.6-7.5-9.1C121.9,47.6,116.3,40.8,110.6,37.6"/>
	<path class="st0" d="M102.4,70c0,0-0.4,0.6-0.7,1.2c0,0.2,1.5,1.5,1.6,1.8c0.3,0.6,1.6,1.4,3.5,1.8c2,0.5,2.2,1.1,2.5,1.6
		c0.3,0.5,4.1,5.8,4.4,6.3c0.4,0.5,2.7,3.8,2-0.1c-1.2-3.6-2.4-6.8-2.4-6.8l-1.7-0.8l1.3,3.4c0.1,0.2,1.5,3.3-0.4,0.5
		c-1.3-2.1-2.6-4.1-2.7-4.1c-0.1,0-1.6-1.3-2.7-1.5c-1.2-0.2-2.4-1.2-3-1.5C103.5,71.7,102.4,69.9,102.4,70"/>
	<path class="st0" d="M108.4,67.7l-0.9,1.4c-0.3,0.5,1.3,1.7,1.6,2.7c0.3,1,2,2.3,3.4,2.5c1.9,1.2,2.9,2,3.5,2.6
		c0.7,0.6,3,6.8,3.2,7.9c0.2,1,2.5,8.3,2.1,0.1c-0.8-7.9-2-9.9-3.4-10.8l0.4,2.3c0.4,0.2,1.4,3.6,1.5,4.8c0.1,1.3,0.5,4.2-0.5,0.7
		c-1-3.6-2.3-6-2.4-6.1c-0.1-0.1-2-2.3-4.1-3.1C110.6,71.8,108.7,67.3,108.4,67.7"/>
	<path class="st0" d="M114.9,64.8l-1,1.1c-0.5,0.5,2.1,4.5,2.7,5.6c1.8,2,4.9,2.7,5.3,7.5c0.1,1,0.7,4,2.3,7.6
		c0.5,1.2,1.5,3,1.6,4.6c0.3,1.6,1.6,11,1.9,3.3c0-0.8-0.1-1.9-0.1-3.1c-0.4-7.4-1.1-12.4-2-15.1c-0.6-1.7-1.3-2.1-1.8-2.6l0.6,3
		c0.3,0.1,0.4,1.8,1.2,5.5c0.4,1.9,0.3,3.7,0.2,3.9c-0.1,0.1-0.9-1-1.5-3.3c-1.3-5.9-1.8-9.3-4.8-11.4
		C116.8,69.5,115.1,64.5,114.9,64.8"/>
	<path class="st0" d="M121.2,62.7l-0.6,1.2c-0.4,0.8,1.7,4.8,2.1,6.2c1.2,1.9,4.3,3,4.9,10.4c0.1,1.1,0.4,2.7,1.3,6.8
		c0.3,1.4,1.7,3.1,1.5,4.8c-0.2,1.9,0.6,13.1,1.6,4.3c0.1-0.9,0.2-3.4,0.3-4.7c0.6-8.1-0.4-11.1-0.9-14.2c-0.3-1.9-1.5-2.4-2-2.7
		l0.6,3c0.2,0.1,0.7,5.1,1,9.3c0.2,2.3-0.4,0.4-0.5,0.3c-0.1-0.1-1.6-5.7-1.8-8.4c-0.4-5.1-1.2-5.7-3.8-8.7
		C122.8,67.7,121.8,62.3,121.2,62.7"/>
	<path class="st0" d="M128.4,62.1l-1.6,0.8c-0.1,0.1,1.4,6.7,2,7.9c0.5,1.4,2,2.2,4,5.2c0.6,0.8,0.3,8.8,1,12.8
		c0.3,1.4,1.4,6.1,1.2,7.8c-0.6,2.5-1.4,11.8,1.6,3.5c0.3-0.8,0.6-1.8,0.7-3.1c0.6-2.1,0.2-7.2,0.5-11.8c0.3-3.5,2.2-6.8,1.3-10.3
		c-0.9-4.1-1.3-6.5-2-8.9l-1.6-0.2c0.7,3.7,1.8,8,2.2,11c-0.4,2.8-0.9,4.2-1.3,6.1c-0.1,0.3-0.2,3.1,0,7.4c0.1,3.5-0.8,1.8-1-0.6
		c0-0.2-0.5-8.3-0.5-11c0-4.1-1.6-5.3-3-7.1C129.8,68.8,129.6,65.3,128.4,62.1"/>
	<path class="st0" d="M138.3,44.9c-0.9,0-1.6-0.1-2.2-0.4c-0.6-0.3-1-0.7-1.4-1.3c-0.6-1-0.6-2.1-0.1-3.4c0.5-1.2,1.5-2.3,2.9-3.2
		c1.4-0.9,2.8-1.3,4.1-1.3c1.3,0.1,2.2,0.6,2.8,1.6c0.4,0.7,0.6,1.3,0.6,2.1c0,0.1,0.1,0.2,0.2,0.3c0.1,0.1,0.3,0.1,0.4,0.1l0.2,0
		l0.2,0.3l-3,2l-0.2-0.2c0.7-0.6,1.2-1.3,1.3-2c0.2-0.7,0.1-1.3-0.3-2c-0.4-0.7-1.1-1-2.1-1c-1,0.1-2.1,0.5-3.4,1.3
		c-1.3,0.8-2.2,1.7-2.7,2.6c-0.5,0.9-0.5,1.7-0.1,2.4c0.3,0.5,0.7,0.9,1.2,1.1c0.5,0.2,1.1,0.4,1.9,0.4L138.3,44.9z"/>
	<path class="st0" d="M125,29.8l3.7-1.3l1.1-4.2c0.1-0.5,0.2-0.8,0.1-1c0-0.2-0.2-0.4-0.4-0.7l0.3-0.3l1.3,1.1l1.3,1.1l-0.2,0.3
		c-0.4-0.3-0.6-0.4-0.8-0.4c-0.2,0.1-0.4,0.3-0.5,0.7l-0.7,2.8l2.4-0.8c0.6-0.2,0.9-0.4,1.1-0.6c0.1-0.2,0-0.5-0.3-0.8l0.3-0.3
		l1,0.9l1,0.9l-0.2,0.3c-0.3-0.2-0.6-0.3-0.9-0.3c-0.2,0-0.7,0.1-1.3,0.3l-3.3,1.1l-1.2,4.6c-0.1,0.5-0.2,0.9-0.2,1
		c0,0.2,0.2,0.4,0.4,0.6l-0.2,0.3l-1.3-1.1l-1.3-1.1l0.3-0.3c0.3,0.3,0.6,0.4,0.8,0.3c0.2-0.1,0.3-0.3,0.4-0.8l0.8-3.2l-2.8,1
		c-0.6,0.2-0.9,0.4-1,0.6c-0.1,0.2,0,0.5,0.3,0.8l-0.2,0.3l-1-0.9l-1-0.9L123,30c0.3,0.1,0.5,0.2,0.8,0.2
		C124,30.1,124.4,30,125,29.8"/>
	<path class="st0" d="M107.1,18.3c-0.4,0.9-0.6,1.5-0.6,1.8c0,0.3,0.2,0.6,0.7,0.8l-0.2,0.3l-1.3-0.6l-1.3-0.6l0.2-0.3
		c0.5,0.2,0.8,0.2,1,0c0.2-0.2,0.6-0.7,1-1.6l2.7-5.8c0.2-0.5,0.3-0.8,0.2-1c-0.1-0.2-0.3-0.4-0.7-0.6l0.2-0.4l1.1,0.5l1.1,0.5
		l-0.7,8.5l6-6.1l1.1,0.5l1.1,0.5l-0.2,0.4c-0.5-0.2-0.8-0.2-1,0c-0.2,0.2-0.5,0.6-0.9,1.4l-2.5,5.4c-0.3,0.8-0.5,1.3-0.5,1.5
		c0,0.3,0.2,0.5,0.7,0.8l-0.2,0.3l-1.6-0.7l-1.6-0.7l0.2-0.4c0.5,0.2,0.8,0.2,1,0.1c0.2-0.1,0.4-0.4,0.7-0.9l2.9-6.3l-6.5,6.6
		l-0.1,0l-0.1,0l0.7-9L107.1,18.3z"/>
	<path class="st0" d="M17.6,58.9l-7.9-3.2l0,0c-0.3,0.7-0.3,1.3,0,1.8c0.3,0.5,0.8,1,1.7,1.4l-0.2,0.4l-1.6-0.6L8,58l1.4-3.6
		l1.4-3.6l1.6,0.6l1.6,0.6l-0.1,0.3c-0.9-0.3-1.6-0.3-2.2-0.1c-0.6,0.2-1,0.6-1.2,1.3l0,0.1l7.9,3.2c0.4,0.2,0.8,0.2,1,0.2
		c0.2-0.1,0.4-0.3,0.6-0.6l0-0.1l0.4,0.2l-0.8,2l-0.8,2l-0.4-0.2l0-0.1c0.1-0.3,0.1-0.6,0-0.8C18.3,59.2,18,59.1,17.6,58.9"/>
	<path class="st0" d="M16.2,78.4l-0.5,0l0-0.1c0-0.4-0.1-0.6-0.3-0.8c-0.2-0.2-0.5-0.3-1-0.3l-7.6-0.4c-0.5,0-0.8,0-1,0.2
		c-0.2,0.1-0.3,0.4-0.3,0.8l0,0.1l-0.5,0l0.2-3.2l0.2-4l1.7,0.1l1.7,0.1l0,0.3c-1.1,0.1-1.8,0.3-2.2,0.7c-0.4,0.4-0.6,1.1-0.7,2.1
		l0,0.1c0,0.3,0,0.5,0.2,0.6c0.1,0.1,0.4,0.2,0.7,0.2l3.5,0.2l0-0.2c0-0.6-0.1-1-0.4-1.3C9.6,73.2,9,73,8,72.8l0-0.3l2.8,0.1
		l2.8,0.1l0,0.3c-1,0.1-1.7,0.3-2,0.5c-0.3,0.2-0.5,0.6-0.6,1.2l0,0.2l3.6,0.2c0.5,0,0.8,0,1-0.1c0.2-0.1,0.3-0.4,0.3-0.7
		c0-0.9-0.1-1.6-0.5-2.1c-0.4-0.5-1.1-1-2.2-1.5l0.1-0.3l1.7,0.4l1.7,0.4l-0.2,4.1L16.2,78.4z"/>
	<path class="st0" d="M115.3,25.1l0.3-0.4l0.1,0.1c0.3,0.2,0.6,0.3,0.8,0.2c0.2-0.1,0.5-0.3,0.7-0.7l4.1-6.3c0.3-0.4,0.4-0.7,0.3-1
		c0-0.3-0.2-0.5-0.5-0.7l-0.1-0.1l0.3-0.4l2.7,1.7l3.5,2.2l-0.9,1.4l-0.9,1.4l-0.3-0.2c0.4-1,0.6-1.7,0.4-2.2
		c-0.1-0.5-0.7-1-1.5-1.6l-0.1,0c-0.2-0.2-0.4-0.2-0.6-0.1c-0.2,0-0.3,0.2-0.5,0.5l-1.9,2.9l0.1,0.1c0.5,0.3,1,0.4,1.4,0.3
		c0.4-0.1,0.9-0.6,1.5-1.3l0.3,0.2l-1.5,2.3l-1.5,2.3l-0.3-0.2c0.4-0.9,0.6-1.5,0.6-2c0-0.4-0.3-0.8-0.8-1.1l-0.1-0.1l-1.9,2.9
		c-0.3,0.4-0.4,0.7-0.4,0.9c0,0.2,0.2,0.4,0.5,0.6c0.8,0.5,1.5,0.7,2.1,0.6c0.6-0.1,1.4-0.4,2.4-1.1l0.2,0.2l-1.1,1.3l-1.2,1.3
		l-3.6-2.2L115.3,25.1z"/>
	<path class="st0" d="M99.6,10.9c0-0.8-0.2-1.5-0.7-2c-0.4-0.6-0.9-0.9-1.6-1c-0.5-0.1-0.8,0-1.2,0.3c-0.3,0.2-0.5,0.6-0.6,1.1
		c-0.1,0.4,0,0.7,0.2,1.1c0.2,0.4,0.6,0.8,1.2,1.2c1,0.8,1.7,1.5,2,2.1c0.3,0.6,0.4,1.2,0.3,1.8c-0.2,0.9-0.6,1.5-1.3,1.9
		c-0.7,0.4-1.6,0.5-2.6,0.4c-0.6-0.1-1.1-0.3-1.6-0.7c-0.2-0.2-0.4-0.2-0.5-0.2c-0.2,0-0.3,0.1-0.4,0.3l-0.1,0.1l-0.4-0.1l0.2-3.4
		L93,14c0.1,0.8,0.4,1.5,0.8,2.1c0.5,0.6,1,0.9,1.7,1c0.6,0.1,1.1,0,1.5-0.3c0.4-0.3,0.7-0.7,0.8-1.3c0.1-0.4,0-0.8-0.3-1.2
		c-0.3-0.4-0.8-0.9-1.5-1.5c-0.8-0.6-1.3-1.2-1.7-1.8c-0.3-0.6-0.4-1.1-0.3-1.6C94,8.7,94.4,8.1,95,7.6c0.6-0.4,1.3-0.6,2.2-0.5
		c0.6,0.1,1.1,0.3,1.7,0.7C99,8,99.2,8,99.3,8c0.2,0,0.3-0.1,0.4-0.2l0.1-0.2l0.4,0.1L99.9,11L99.6,10.9z"/>
	<path class="st0" d="M155.9,79.1c0.8-0.2,1.4-0.6,1.9-1.2c0.4-0.5,0.6-1.1,0.6-1.7c-0.1-0.4-0.2-0.8-0.6-1
		c-0.3-0.2-0.7-0.3-1.3-0.3c-0.4,0-0.7,0.2-1,0.5c-0.3,0.3-0.6,0.8-0.9,1.5c-0.5,1.2-1.1,2-1.5,2.4c-0.5,0.5-1.1,0.7-1.7,0.8
		c-0.9,0.1-1.7-0.2-2.3-0.7c-0.6-0.6-1-1.4-1.1-2.4c-0.1-0.6,0-1.1,0.3-1.7c0.1-0.2,0.1-0.4,0.1-0.6c-0.1-0.1-0.2-0.3-0.4-0.3
		l-0.1-0.1l0-0.4l3.4-0.7l0,0.4c-0.8,0.3-1.4,0.7-1.9,1.3c-0.5,0.6-0.7,1.2-0.6,1.9c0.1,0.6,0.3,1,0.7,1.3c0.4,0.3,0.9,0.4,1.5,0.4
		c0.4,0,0.7-0.2,1.1-0.6c0.3-0.4,0.7-1,1.1-1.8c0.4-0.9,0.9-1.6,1.3-2c0.5-0.5,1-0.7,1.5-0.7c0.8-0.1,1.6,0.1,2.2,0.6
		c0.6,0.5,0.9,1.1,1,1.9c0.1,0.6,0,1.2-0.3,1.7c-0.1,0.2-0.1,0.3,0,0.5c0.1,0.2,0.2,0.3,0.3,0.3l0.2,0.1l0,0.4l-3.4,0.6L155.9,79.1z
		"/>
	<path class="st0" d="M11,61.6c-0.8,0-1.5,0.1-2.1,0.5c-0.6,0.4-1,0.9-1.1,1.5c-0.1,0.4,0,0.8,0.2,1.1C8.1,65,8.5,65.2,9,65.4
		c0.4,0.1,0.7,0,1.1-0.2c0.4-0.2,0.8-0.6,1.4-1.1c0.9-0.9,1.7-1.5,2.3-1.8c0.6-0.3,1.2-0.4,1.9-0.2c0.9,0.2,1.5,0.7,1.9,1.4
		c0.4,0.7,0.4,1.6,0.2,2.6c-0.1,0.6-0.4,1-0.8,1.5c-0.2,0.2-0.3,0.4-0.3,0.5c0,0.2,0.1,0.3,0.3,0.4l0.1,0.1L17,69l-3.4-0.4l0.1-0.4
		c0.9,0,1.6-0.2,2.3-0.7c0.6-0.4,1-0.9,1.2-1.6c0.1-0.6,0.1-1-0.2-1.4c-0.3-0.4-0.7-0.7-1.3-0.8c-0.4-0.1-0.8,0-1.2,0.2
		c-0.4,0.3-1,0.7-1.6,1.4c-0.7,0.7-1.3,1.2-1.9,1.5c-0.6,0.3-1.2,0.4-1.7,0.2c-0.8-0.2-1.4-0.6-1.8-1.3c-0.4-0.6-0.5-1.3-0.3-2.1
		c0.1-0.6,0.4-1.1,0.8-1.6C7.9,62,8,61.8,8,61.6c0-0.2-0.1-0.3-0.2-0.4l-0.2-0.1l0.1-0.4l3.4,0.5L11,61.6z"/>
	<path class="st0" d="M39.6,21.6c-0.6-0.5-1.3-0.8-2-0.9c-0.7-0.1-1.3,0.1-1.8,0.5c-0.4,0.3-0.5,0.6-0.6,1c0,0.4,0.1,0.8,0.4,1.2
		c0.2,0.3,0.6,0.5,1,0.6c0.4,0.1,1,0.1,1.8,0c1.3-0.2,2.3-0.2,2.9-0.1c0.7,0.1,1.2,0.5,1.6,1c0.6,0.7,0.7,1.5,0.6,2.3
		c-0.2,0.8-0.7,1.5-1.5,2.2c-0.5,0.4-1,0.6-1.6,0.7c-0.3,0-0.4,0.1-0.5,0.2c-0.1,0.1-0.1,0.3,0,0.5l0,0.1l-0.3,0.2l-2.4-2.4l0.3-0.2
		c0.7,0.5,1.4,0.8,2.2,0.8c0.8,0.1,1.4-0.1,1.9-0.5c0.5-0.4,0.7-0.8,0.8-1.2c0.1-0.5-0.1-0.9-0.4-1.4c-0.2-0.3-0.6-0.5-1.1-0.6
		c-0.5-0.1-1.2,0-2.2,0.1c-1,0.1-1.8,0.1-2.5,0c-0.6-0.1-1.1-0.4-1.5-0.8c-0.5-0.7-0.7-1.4-0.6-2.1c0.1-0.7,0.5-1.4,1.1-1.9
		c0.5-0.4,1-0.6,1.6-0.7c0.2,0,0.3-0.1,0.4-0.3c0.1-0.1,0.1-0.3,0.1-0.4l0-0.2l0.3-0.2l2.3,2.4L39.6,21.6z"/>
	<path class="st0" d="M68.7,15.1l-1.2-5.9c-0.2-0.8-0.4-1.3-0.6-1.5c-0.2-0.2-0.6-0.3-1.2-0.2l-0.1-0.4l2.1-0.3l2.1-0.3L70,6.8
		c-0.6,0.1-0.9,0.3-1,0.6C68.9,7.6,68.9,8.2,69,9l1.2,5.9c0.2,0.8,0.4,1.3,0.6,1.5c0.2,0.2,0.6,0.3,1.2,0.2L72,17l-2.1,0.3l-2.1,0.3
		l-0.1-0.4c0.6-0.1,0.9-0.3,1-0.6C68.9,16.5,68.8,15.9,68.7,15.1"/>
	<path class="st0" d="M131.7,35.5l4.4-4.2c0.6-0.6,1-1,1-1.3c0.1-0.3-0.1-0.6-0.4-1.1l0.3-0.3l1.4,1.5l1.4,1.5l-0.3,0.3
		c-0.4-0.4-0.8-0.6-1-0.5c-0.3,0.1-0.7,0.4-1.3,1l-4.4,4.2c-0.6,0.6-1,1-1,1.3c-0.1,0.3,0.1,0.6,0.4,1.1l-0.3,0.3l-1.4-1.5l-1.4-1.5
		l0.3-0.3c0.4,0.4,0.8,0.6,1,0.5C130.7,36.4,131.1,36.1,131.7,35.5"/>
	<path class="st0" d="M60.3,16.9c0.3,1,0.6,1.6,0.8,1.8c0.2,0.2,0.6,0.3,1,0.2l0.1,0.4l-1.4,0.4L59.5,20l-0.1-0.4
		c0.5-0.2,0.7-0.4,0.8-0.7c0-0.3-0.1-0.9-0.4-1.9l-2.2-6.7c-0.3-0.2-0.5-0.4-0.7-0.4c-0.2-0.1-0.5-0.1-0.8,0l-0.1-0.4l1-0.3L58,8.9
		l7.1,6.2l-1.6-4.9c-0.3-1-0.6-1.6-0.8-1.8c-0.2-0.2-0.6-0.3-1-0.2l-0.1-0.4l1.4-0.4L64.3,7l0.1,0.4c-0.5,0.2-0.7,0.4-0.8,0.7
		c0,0.3,0.1,0.9,0.4,1.9l2.7,8.2l-0.1,0l-0.1,0l-8.2-7.1L60.3,16.9z"/>
	<path class="st0" d="M145.6,56.2c-0.9,0.4-1.5,0.6-1.7,0.9c-0.2,0.2-0.2,0.6-0.1,1.1l-0.4,0.1l-0.5-1.4l-0.5-1.4l0.4-0.1
		c0.2,0.5,0.4,0.7,0.7,0.7c0.3,0,0.9-0.1,1.8-0.5l6.4-2.5c0.2-0.3,0.3-0.5,0.4-0.7c0.1-0.2,0.1-0.5,0-0.8l0.4-0.1l0.4,1.1l0.4,1.1
		l-5.4,7.4l4.6-1.8c0.9-0.4,1.5-0.7,1.7-0.9c0.2-0.2,0.2-0.6,0.1-1.1l0.4-0.1l0.5,1.4l0.5,1.4l-0.4,0.1c-0.2-0.5-0.4-0.7-0.7-0.7
		c-0.3,0-0.9,0.1-1.8,0.5l-7.7,3l0-0.1l0-0.1l6.2-8.6L145.6,56.2z"/>
	<path class="st0" d="M55.6,17.1c0.7,1.3,0.9,2.4,0.7,3.2c-0.2,0.8-0.8,1.4-1.8,1.7c-1,0.4-1.9,0.3-2.7-0.2
		c-0.8-0.5-1.5-1.3-2.2-2.7l-1.9-3.8c-0.4-0.8-0.7-1.2-0.9-1.4c-0.2-0.2-0.6-0.2-1.1-0.1l-0.2-0.3l1.7-0.6l1.7-0.6l0.2,0.3
		c-0.4,0.2-0.7,0.4-0.7,0.6c-0.1,0.2,0.1,0.5,0.3,1.1L51,19c0.5,1.1,1.1,1.8,1.6,2.1c0.5,0.4,1.2,0.4,1.9,0.2
		c0.7-0.3,1.1-0.7,1.3-1.3c0.1-0.6-0.1-1.4-0.6-2.5l-1.8-3.8c-0.4-0.9-0.8-1.4-1-1.6c-0.2-0.2-0.6-0.2-1.1,0l-0.2-0.3l1.4-0.5
		l1.4-0.5l0.2,0.3c-0.5,0.2-0.7,0.4-0.7,0.7c0,0.3,0.2,0.9,0.6,1.7L55.6,17.1z"/>
	<path class="st0" d="M87.2,16.6c-1.3-0.1-2.3-0.6-3-1.7c-0.8-1.1-1.1-2.4-1-4.1c0.1-1.6,0.5-3,1.4-4c0.9-1,1.9-1.5,3.2-1.4
		C89,5.5,90,6.1,90.8,7.2c0.8,1.1,1.1,2.4,1,4.1c-0.1,1.6-0.5,3-1.4,4C89.5,16.2,88.5,16.7,87.2,16.6 M87.2,16
		c0.8,0,1.5-0.4,2.1-1.2c0.5-0.9,0.8-2,0.9-3.6c0.1-1.5-0.1-2.7-0.6-3.6c-0.5-0.9-1.1-1.4-1.9-1.4c-0.8,0-1.5,0.4-2.1,1.2
		c-0.5,0.9-0.8,2-0.9,3.6c-0.1,1.5,0.1,2.7,0.6,3.6C85.7,15.5,86.4,15.9,87.2,16"/>
	<path class="st0" d="M146.3,68.2c-0.3-1.2,0-2.3,0.9-3.3c0.9-1,2.1-1.7,3.8-2.1c1.7-0.4,3.1-0.3,4.3,0.2c1.2,0.5,2,1.4,2.3,2.6
		c0.3,1.2,0,2.3-0.9,3.3c-0.9,1-2.1,1.7-3.8,2.1c-1.7,0.4-3.1,0.3-4.3-0.2C147.3,70.3,146.6,69.4,146.3,68.2 M147,68
		c0.2,0.8,0.8,1.3,1.8,1.6c1,0.3,2.3,0.2,3.8-0.1c1.5-0.3,2.7-0.8,3.4-1.5c0.8-0.7,1.1-1.4,0.9-2.2c-0.2-0.8-0.8-1.3-1.8-1.6
		c-1-0.3-2.3-0.2-3.8,0.1c-1.5,0.3-2.7,0.8-3.4,1.5C147.1,66.5,146.8,67.2,147,68"/>
	<path class="st0" d="M35.4,35.2c-0.9,0.9-2,1.2-3.3,1.1c-1.3-0.2-2.6-0.8-3.8-2c-1.2-1.2-1.9-2.4-2.1-3.7c-0.2-1.3,0.2-2.4,1-3.3
		c0.9-0.9,2-1.2,3.3-1.1c1.3,0.2,2.6,0.8,3.8,2c1.2,1.2,1.9,2.4,2.1,3.7C36.7,33.2,36.3,34.3,35.4,35.2 M34.9,34.7
		c0.6-0.6,0.7-1.4,0.4-2.3c-0.3-1-1-2-2.1-3c-1.1-1.1-2.2-1.7-3.1-2c-1-0.3-1.8-0.1-2.4,0.5c-0.6,0.6-0.7,1.4-0.4,2.3
		c0.3,1,1,2,2.1,3c1.1,1.1,2.2,1.7,3.1,2C33.5,35.4,34.3,35.3,34.9,34.7"/>
	<path class="st0" d="M73.9,14.3l-0.4-6.1c-0.1-0.8-0.2-1.4-0.3-1.6c-0.2-0.2-0.5-0.3-1-0.3l0-0.4L74,5.7l1.7-0.1
		c1.7-0.1,3.1,0.3,4.1,1.2c1,0.9,1.6,2.3,1.7,4c0.1,1.7-0.3,3-1.2,4c-0.9,1-2.2,1.6-4,1.7l-1.5,0.1l-1.9,0.1l0-0.4
		c0.5-0.1,0.8-0.2,1-0.5C73.9,15.7,73.9,15.1,73.9,14.3 M75.3,15c0,0.4,0.1,0.6,0.2,0.7c0.1,0.1,0.3,0.1,0.6,0.1h0
		c1.2-0.1,2.2-0.6,2.8-1.4c0.6-0.9,0.9-2,0.8-3.5c-0.1-1.5-0.5-2.7-1.3-3.5c-0.7-0.8-1.7-1.2-2.9-1.1l-0.2,0c-0.3,0-0.5,0.1-0.6,0.2
		c-0.1,0.1-0.1,0.4-0.1,0.8L75.3,15z"/>
	<path class="st0" d="M25.1,43.6l-4.9-3.8C19.4,39.3,19,39,18.7,39c-0.3,0-0.6,0.1-0.9,0.5l-0.3-0.2l1.2-1.5l1-1.3
		c1.1-1.3,2.3-2,3.7-2.1c1.4-0.1,2.8,0.4,4.2,1.4c1.4,1,2.1,2.2,2.3,3.6c0.2,1.3-0.3,2.7-1.4,4l-0.9,1.2L26.3,46L26,45.8
		c0.3-0.4,0.4-0.8,0.3-1C26.1,44.5,25.7,44.1,25.1,43.6 M26.6,43c0.3,0.2,0.6,0.4,0.7,0.4c0.1,0,0.3-0.1,0.5-0.4l0,0
		c0.8-0.9,1-1.9,0.8-3c-0.2-1-1-2-2.2-2.9c-1.2-0.9-2.4-1.4-3.5-1.4c-1.1,0-2,0.4-2.8,1.3L20.1,37c-0.2,0.3-0.3,0.4-0.3,0.6
		c0,0.2,0.2,0.3,0.5,0.6L26.6,43z"/>
	<path class="st0" d="M20.4,52.5l-6.9-7l0.1-0.1l0.1-0.1l9.8,1.7C24,47,24.4,47,24.6,47c0.2,0,0.4-0.1,0.5-0.3l0,0l0.4,0.2l-1,1.8
		l-1,1.8l-0.4-0.2l0.1-0.1c0.2-0.3,0.2-0.6,0.1-0.8c-0.1-0.2-0.4-0.3-0.9-0.4L21,48.5l-1.3,2.4l1.1,1c0.3,0.3,0.6,0.4,0.8,0.4
		c0.2,0,0.5-0.2,0.7-0.5l0.1-0.1l0.4,0.2l-0.6,1.1l-0.6,1.1L21.1,54l0,0c0.1-0.2,0.1-0.4,0-0.6C20.9,53.1,20.7,52.9,20.4,52.5
		 M19.1,50.4l1.1-2l-3.8-0.7L19.1,50.4z"/>
	<path class="st0" d="M140.2,47.3l9.4-2.1l0.1,0.1l0.1,0.1l-6.7,7.3c-0.3,0.4-0.6,0.7-0.7,0.9c-0.1,0.2-0.1,0.4,0,0.6l0,0l-0.4,0.2
		l-0.9-1.7l-0.9-1.7l0.4-0.2l0.1,0.1c0.2,0.3,0.4,0.5,0.6,0.5c0.2,0,0.5-0.2,0.8-0.5l1-1.1l-1.2-2.3l-1.4,0.4
		c-0.4,0.1-0.7,0.2-0.8,0.4c-0.1,0.2-0.1,0.5,0,0.9l0.1,0.1l-0.4,0.2l-0.6-1.1l-0.6-1.1l0.4-0.2l0,0c0.1,0.2,0.3,0.2,0.5,0.3
		C139.4,47.4,139.7,47.4,140.2,47.3 M142.6,47.3l1,1.9l2.6-2.8L142.6,47.3z"/>
	<path class="st0" d="M65.2,61.1l-1-0.6c-0.8-0.5-2.3,4.7-2.3,5.1c0,0.4,0.1,2.8,1.1,4.3c1,1.6,1.1,3.1,1.2,3.4
		c0.1,0.3-0.5,2.6,1.1,2.4c1.5-0.2,1.8-0.4,2.2-0.9c0.3-0.5,0.6-1.5,0.2-1.8c-0.3-0.3-1.3-4.6-1.4-5c-0.1-0.4-0.3-1.5,0.1-2.8
		c0.2-1.3,1.3-3.2,1.2-3.2l-0.8-0.4c0,0-2.1,2-1.8,5.8c0.3,1.8,1.1,3.3,1.4,5.4c0.1,0.1-0.3,2-0.9,0.3c-0.8-2.5-0.6-2.2-1.1-3.5
		c-0.5-1.2-1.2-3.2-0.9-4.1C63.5,64.9,64.1,62.2,65.2,61.1"/>
	<path class="st0" d="M88.7,58.5c0,0-0.2-1.1,0.2-1.3c0.4-0.1,1.5,2.6,1.5,2.6s0.4,1.4-0.1,3.3c-0.5,1.8-1.6,2.7-2.4,0.3
		c-0.8-2.4-1-2.8-1.3-3.4c-0.3-0.6,0.5-0.9,0.7-0.4c0.2,0.4,1.1,2.8,1.1,2.9c0,0.2,1,2.1,1.2-1.8C89.3,59.3,88.7,58.5,88.7,58.5"/>
	<path class="st0" d="M67.3,78.2c0,0,0.8,0.2,1,1.2c0.2,1,0.1,1.6,0.4,2.1c0.3,0.6,0.6,0.5,0.7,0.2c0.2-0.3,0.2-0.8,1,0.6
		c0.6,1.3-0.7,1.3-0.8,1.3c-0.2,0-1.3-0.4-1.7-1.7c-0.5-1.3-0.3-2.4-0.6-2.8L67.3,78.2z"/>
	<path class="st0" d="M68.5,75.7c-0.5,0-0.9,0.1-1.2,0.6c-0.4,0.3,5.6,8,7,9c1.4,1,3,2.1,3.8,1.9c0.9-0.3,0.2-1.5,0-1.7
		c-0.1-0.1-1.6-2.3-3-4.1c-1.5-2-2.5-3.7-2.7-3.7l-1.2-0.1c0,0,4.9,6.6,5,6.8c0.1,0.2,0.6,1.2-0.7,0.2C73.8,83.2,68.6,76,68.5,75.7"
		/>
	<path class="st0" d="M74.8,77c-0.3-0.1-0.9,0.3-0.9,0.8c2,2.8,3.8,5.1,6.1,7.8c3.6,4.2,4.8,0.6,4.4-1.2c0-0.1-0.6-1.8-1.8-3.8
		c-1.4-2.1-2.8-4.6-2.9-4.6c-0.5,0-1.4,0-1.4,0c0.1,0.3,4.5,6.2,4.7,7.9c0.2,1.7,0,2.3-1.2,1.5C79.7,83.8,75.1,77.1,74.8,77"/>
	<path class="st0" d="M81.9,75c-0.2-0.2-1.1,0.2-1.2,0.7c1.2,1.9,2,3,2.8,4.4c0.5,0.8,1,1.8,1.9,2.9c3.2,4.5,5.8,1.1,5.3-1.3
		c0-0.2-0.4-1.5-1.5-3.4c-1.2-2.2-2.6-5.6-2.7-5.7c-0.8-0.4-1.3-0.2-1.2,0.4c0.1,0.3,3.6,7.1,3.9,8.8c0.3,1.7-1,2.1-2.3,1
		c-0.8-0.6-1.6-2.2-2.6-3.8C83.1,76.9,82.1,75.1,81.9,75"/>
	<path class="st0" d="M87.8,71.2c-0.5-0.1-0.7,0.3-0.8,0.8c1.3,2.2,2.4,5.4,3.8,7.7c2.5,3.8,4.7-0.1,4.2-2.4c0-0.1-0.3-1.8-1.3-3.6
		c-1.3-2.3-4.6-7.7-4.7-7.6C88.9,67,88.8,67.5,89,68c0.1,0.2,4.2,5.8,4.6,8.6c0.3,2.4-0.4,2.9-1.6,1.9c-1-1.5-1.2-2-2.1-3.4
		C89.1,73.7,88.4,71.3,87.8,71.2"/>
	<path class="st0" d="M75.8,76.3c0-0.1-0.1-1.4,0.3-1.1c0.5,0.3,4.7,6.9,4.9,7.1c0.2,0.2,0.8,1.6,0,1.1
		C80.2,82.6,75.8,76.4,75.8,76.3"/>
	<path class="st0" d="M83,74.1c-0.1-0.2,0.1-1.8,0.5-1.5c0.4,0.3,3.7,6.7,4.1,7.7c0.4,0.9,0.5,2.1-0.6,1.1
		C86.3,80.3,83.1,74.4,83,74.1"/>
	<path class="st0" d="M88.4,70.3c0,0,0-1,0.3-1.1c0.3-0.1,3.2,5.1,3.6,6.2c0.4,1.1,0.6,2.4-0.4,1.2C91.2,75.6,88.5,70.3,88.4,70.3"
		/>
	<path class="st0" d="M90.7,64.7c-0.1,0.3-0.4,0.8-0.5,1.1c-0.1,0.2,2.3,3.5,3.6,5.7c1.3,2.2,1.9,3.2,2.2,3.2c0.4,0,0.8-2.1,0.4-3.2
		s-3.2-8-4.6-9.4c-1-0.4-0.6,0.7-0.5,0.9c1.3,2.7,2.2,4.4,3.3,6.5c1.1,2.1,0.7,2.6-0.5,0.8C92.9,67.7,90.8,64.4,90.7,64.7"/>
	<path class="st0" d="M85.5,85.1l1.8,0.9c0,0,2.8,4.4,3.1,6c0.3,1.5-0.2,1.4-0.6,0.5C89.5,91.7,85.5,85.1,85.5,85.1"/>
	<path class="st0" d="M85.1,87.1l-0.6,1.3c0,0,4.1,6.6,5.9,8.2c1.8,1.6,2.7,1.8,2.9-0.8c0.2-2.6-2.9-10.4-3.3-10.2l-1.3,0.5
		c0.2,0.2,6.1,12.3,2.1,9.1C88.8,93.6,85.6,87,85.1,87.1"/>
	<path class="st0" d="M92.4,82.4l1.3,0c1.5,2.2,3.4,10.6,1.5,7.1C94.6,87.6,92.3,82.4,92.4,82.4"/>
	<path class="st0" d="M91.6,83.8c0,0-0.6,1-0.6,1.3c0,0.3,2.3,5.2,2.7,5.9c0.4,0.7,2.8,8,4.2,2.1c1.4-5.9-2.4-12.7-2.4-12.7l-0.6,1
		c-0.3,0.5,2.8,5.7,2.1,9.5c-0.7,3.8-1.6,1.2-1.7,0.9C94.8,91.1,91.6,83.8,91.6,83.8"/>
	<path class="st0" d="M96.4,76.8c-0.2,0.3-0.3,2.1-0.3,2c0.1-0.1,2.5,6.4,2.7,9.7c0.2,2.6,1.4,6.1,2.7,1c1.3-5.1,0.3-6.8,0.3-8.7
		c0-1.9-2.1-7.4-2.6-7.4c-0.4-0.1-0.6,0-0.7,0.5c-0.1,0.5,2.4,5.5,2.5,8.7c0.2,3.3,0.3,3.2,0,5c-0.3,1.8-1,0.9-1.2-0.5
		C99.7,83.8,96.6,76.5,96.4,76.8"/>
	<path class="st0" d="M97.4,74l-0.6,1.3c-0.3,0.6,1.2,1.1,3.5,9.9C100.7,85.3,99.9,77.2,97.4,74"/>
	<path class="st0" d="M68.2,147.3c0,0-0.4-0.2-0.1-0.7c0.3-0.5,1,0.8,1.2,1c0.3,0.3,0.2,0.9-0.2,0.8c-0.4-0.1-1.4,0.3-1.5,0.7
		c-0.1,0.4-1.4,1.8-2.1,2.7c-0.6,0.8-1,0.8,0-1.2c1-2,0.5-1.2,0.5-1.4c0-0.1-2.1-0.5-3.3-0.4c-3.6,3.4-6,5.4-2,0
		c0-0.6-3.9-0.7-3.3-0.6c-0.6,0.3-6.6,4.1-1.9-0.4c0-1.1-6.2-1.2-7.8-0.8c-0.1,0-1.9-0.3,0.9-0.8c2.8-0.5,2.4-0.1,2.6-0.1
		c0.2,0,0.9,0.2,0.1-0.7c-0.7-0.9-1.2-1.9,0.9-0.5c2.1,1.4,4.9,1.7,5.3,1.5c0.4-0.2-0.8-1.5-1-1.7c-0.1-0.2-0.6-1.6,0.8-0.2
		c1.4,1.3,1.8,2.2,3.2,2.6c1.3,0.4,2.5,0.1,2.7,0c0.2-0.1-1-2.1-1.1-2.6c-0.1-0.6,0-1.3,1,0.6c1,1.9,1,2.2,1.9,2.5
		C65.8,147.6,68.2,147.3,68.2,147.3 M78.1,146.7c-0.6,0.6-3.3-0.4-5.1,1.1c-1.6,1.4-3.1,1.7-4.1,2.1c-4.3,4-5.8,5.3-6.6,4.1
		c3-4.8,0.1-2.8,0.2-3.1c0.1,0-2,2.9-3.6,3c-1.4,0.1-3.6-0.6-2.9-1.4c3.5-3.8,2.4-3.3-3.3-0.5c-2-0.5-2.4-1.3-2-1.5
		c3.7-3.2,1.1-2.5-2.8-1.9c-0.4-0.1-0.8-0.3-1.1-0.3c-3.3,0.1-2.4-0.7-2.4-0.9c-0.1-1.3,3.6-2.5,4.7-2.5c0.9,0-1.1-0.7-0.6-1.5
		c0.1,0,0.9-1.2,2.4-0.6c2.1,0.9,3,1.6,3.6,1.6c0.7,0-0.6-1.2-1-2.2c0.2-0.4,1.9-0.9,2.7-0.3c2.4,1.8,5.1,4.8,4.2,2.4
		c-0.3-0.6-0.7-1.3-0.9-2.1c-0.2-0.8,1.5-1.5,3.4-0.5c1.7,3,2.1,3.7,3.1,3.7c0.5,0,0.3-1.5,1.2-1.3c0.9,0.2,2.3,2.2,3.4,2.2
		c1.2,0,4.5-1.1,4.9-1c0.4,0.1,2-0.4,2.5,0C78.5,145.5,78.3,145.9,78.1,146.7"/>
	<path class="st0" d="M41.3,137.6c0,0,0.2-1,0.6-1.2c0.2-0.1,0.1,0.9,0.5,1.5c0.5,0.7,1.1,1.3,0.8,1.4c-0.1,0.1-0.8,0-0.9,0
		c-0.1,0-0.2-0.4-1.6-0.4c-1.7,0.6-1.3,0.1-0.9-0.5c0.2-0.4-0.5-1.3-1.8-1.2c-2.1,0.2-4.9,0.5-5,0.3c-0.2-0.2,1-0.5,1.2-0.5
		c0.1,0,2.7-0.5,2.8-1.2c-0.5-0.8-0.9-1.6-1.8-2.3c-0.6-0.4-1.5-0.4-2.6-0.6c-0.5-0.1-1.3-0.2-1.7-0.4c-2-0.7-2-0.9,2.6-0.2
		c0.9,0.1,0.9-0.2,0.2-1.4c-0.4-0.6-1.1-2.1-1.7-2.5c-0.1-0.1-3.8-1.3-0.6-0.8c0-3.1,1.1-1.5,1.9,0.4c0.1,0.3,0.8,1.2,1,0.6
		c0.2-0.7,0-3.2,0.8-2.5c-0.2,2.3-0.4,2.2,0,4.3c1.5,2.6-0.1,0,2,3.1c0.6,0.8,0.7,0.4,0.9,0.3c0.1-0.1,0.6-2.5,0.6-3
		c0-0.5,0.7-1.5,0.7,0.2c0,1.6-0.3,4.2,0.2,4.7C39.7,136.6,41.3,137.9,41.3,137.6 M47.5,142.8c-0.5-0.1-2.3-1.8-3.9-2.3
		c-1.3-0.4-2.4-0.4-3.2-0.3c-0.2,0-2.9,0.8-2.9,0.6c-0.4-1.1,0.8-2-0.8-2c-1.8,0.1-4.6,0.3-4.8,0c-0.3-0.4-2.1-1.4-2.5-2.3
		c-0.4-1,3.1-0.8,3.9-0.9c1.6-0.1,1.1-1-0.5-1.4c-1.3-0.4-2.8-0.5-3.9-0.9c-1-0.4-1.9-1.8-2.1-2.6c-0.2-0.8,2.6-0.1,2.9,0
		c2.5,0,2.1-0.1-0.5-1.6c-0.2-0.3-0.5-0.3-0.7-0.4c-3.8-1.9,0.3-2,1.4-2.2c0.5,0-0.2-3.4,0.2-3.6c0.1-0.1,0.5-1.2,1.2,1.1
		c1,0.5,0.3-0.8,1.6,1.7c0.9,0.7,0.6-2,0.8-2.3c0.4-0.8,2,0.2,2,1.3c0.1,2.3,0.5,7.9,1.3,5.6c0.1-0.5,0.2-1.5,0.8-2.9
		c0.6-1.4,2,0.6,2.6,2.1c0.1,1.6,0.3,3.7,0.4,4.8c0,0.5,0.5,0.4,0.6,0.6c0.3,0,0.6-0.1,0.8-1c0.1-0.4,0.5-0.4,0.8-0.3
		c0.4,0.2,0.9,3.9,1.5,4.7c0.5,0.8,1.9,1.9,2.1,2.1c0.2,0.3,2.2,1.6,1.9,1.8C48.3,142.3,48.1,142.5,47.5,142.8"/>
	<path class="st0" d="M23.3,119.4c-0.3,0.1-0.6-0.6-1.1-0.7c-0.4-0.1-2.9-0.5-2.5-0.7c0.4-0.2,0.3,0.1,1.6-0.1
		c0.9-0.1-0.7-1.8-0.8-2.2c-0.1-0.4-1.3-0.8-3.9-1.4c-2.6-0.5-2.7-0.8-0.2-0.5c2.5,0.2,2.6,0.3,2.8,0.2c0.2-0.1-1-2-1.3-2.4
		c-0.2-0.3-2.9-1.4-4.1-1.7c-1.2-0.4-1.6-0.8-0.1-0.6c1.5,0.2,2.3,0.8,2.6,0.7c0.3,0-0.6-0.8-0.8-1.2c-0.2-0.3-2.1-1.8-1.7-1.8
		c0.4,0,1.1,0.6,1.2,0.4c0.1-0.2-0.1-0.7,0.1-0.9c0.2-0.2,1.2,1.5,1.3,1.6c0.1,0.1,0.5,0.4,0.9-0.2c0.4-0.6,0.5-1.2,0.9-1.5
		c0.2,0.2-0.3,1.6-0.3,1.8c0,0.2-0.3,1.5,0,1.8c0.3,0.4,1.7,2.5,2.2,2.8c0.5,0.3,1.8-4.2,1.8-4.4c0-0.2,0.4-0.7,0.5,0
		c0.1,0.7-1.3,4.5-1.3,4.7c-0.1,0.2-0.1,1.9,1.2,3.1c0.5-0.3,0.8-0.4,1-0.6c0.3-0.2,1.2-0.9,0.7,0c-0.4,0.9-1,0.8-1,1.9
		C23,118.7,23.4,118.4,23.3,119.4 M29.1,125.7c-0.5,0.4-2.8-1.2-4.4-3.1c-0.4-0.5-1.1-0.9-1.6-1.5c-0.2,0-0.9-0.6-1.8-0.9
		c-1-0.3-2-0.6-3-1c-0.6-0.2-2.3-1.2-2.3-1.5c0-0.8,1.4-0.7,1.9-0.6c0.2,0,0.9,0.1,1-0.2c0.1-0.3-1.6-0.8-1.8-0.8
		c-1-0.2-2-0.5-2.9-0.7c-0.6-0.2-1-0.5-1.3-0.8c-0.2-0.3-0.4-0.6-0.6-0.9c-0.3-0.4-0.3-0.7-0.4-1c-0.1-0.2,0.2-0.5,0.9-0.6
		c0.6-0.1,1.3,0,1.9,0.2c0.4,0.1,1.4,0.3,1.3,0.1c-0.1-0.2,0-0.3-0.4-0.4c-0.4-0.1-1.4-0.5-1.9-0.7c-0.5-0.2-1-0.3-1.6-0.5
		c-0.6-0.2-1.6-0.7-1.6-1.5c-0.6-0.8-0.2-1.2,0.2-1.4c0.4-0.2,1.3,0.1,1.5,0.1c0.2,0,1.6,0.4,0.9-0.4c-0.7-0.8-1-1.1-0.9-1.6
		c0.1-0.5,0.7-0.9,1.3-0.7c0.6,0.2,0.9,0.1,1-0.1c0.1-0.2,0.4-0.8,1-0.3c0.6,0.5,0.7,0.9,1,1.2c0.4,0.3,0.6,0.9,0.9,0
		c0.3-0.9,0.5-1.7,0.9-1.8c0.4-0.1,0.6-0.3,1.2,0.6c0.4,0.6-0.1,2.2-0.2,2.9c-0.1,0.7,0.1,1,0.1,1.3c0.1,0.3,0.4,0.8,0.8,0
		c0.4-0.8,0.3-1.1,0.6-1.8c0.3-0.7,0.3-1.8,1.2-1.7c0.9,0,2.2,1,2.2,1.9c-0.1,0.9-0.2,1.7-0.7,3.7c-0.5,2.1-0.3,0.9-0.3,1.5
		c0,0.6,0.4,1.1,1.1,0.4c0.7-0.7,0.9-1.1,1.4-0.9c0.6,0.1,0.4,1,0.4,1.2c-0.1,0.2-0.8,3.3-1.1,4.1c-0.3,0.8,0,2.8,0.4,3.6
		c0.4,0.8,1.9,2.8,3.9,3.3L29.1,125.7z"/>
	<path class="st0" d="M11.5,85c0-0.4,0-2.3,0.7-0.3c0.2,0.2,0.2,0.3,0.7,0c0.5-0.3,2.5-2.4,1-0.1c-0.6,0.9-1.2,1.5-1.5,2.1
		c-0.5,1-0.6,1.8-0.4,2c0.3,0.2,1.8-0.5,2.3-0.7c0.5-0.2,2.7-0.9-0.9,1.1c-2.2,1.3-1.8,0.8-1.9,2.3c0.1,1.3,0.2,1.5,0.2,1.6
		c0.1,0.1,1.4-0.2,1.5-0.3c0.2-0.1,1.3-0.3,0.2,0.6c-1.1,0.9-1.1,1-1.2,1.5c0,0.5,0.1,1,0.4,1.4c0.2,0.1,0.7,0,0.7,0.3
		c-0.1,0.3,0,0.9-0.4,1c-0.1,0-0.3,0-0.5-0.1c-0.6-0.4-1.7-1-1.8-1.1c-0.2-0.2,0.5-0.1,0.5-0.3c0.1-0.3,0-1-0.3-1.1
		c-0.2-0.1-1.5-1.1-2.4-1.4c-0.9-0.3-0.9-0.7,0.2-0.4c1.1,0.3,1.7,0.6,1.7,0.4c0.1-0.2,0.1-1.5-0.3-2.3c-0.4-0.8-1.7-2.8-1.8-3
		C8.3,88,7.8,86.5,9,88c1.2,1.5,1.4,1.6,1.7,1.4c0.3-0.3,0.4-2.4,0.6-2.7C11.3,86.4,11.5,85,11.5,85 M15.3,103.8
		c-0.3-0.1-1.3-0.2-1.5-0.9c-0.2-0.7-0.1-2.3-1-3.6c-0.9-1.3-2.2-1.8-2.5-2.1c-0.3-0.3-1.1-0.5-0.7-1.3c0.3-0.7,0.3-0.8-0.2-0.9
		c-0.5-0.2-2.2-0.9-2.5-1.1c-0.3-0.2-1.2-1.2-1.1-2.7c0.2-1.4,2.1,0.4,2.6,0.4c0.5,0,0.5-0.3,0.3-0.8c-0.2-0.5-1.9-2.8-1.6-3.6
		c0.2-0.8,0.9-2,1.2-2.1C8.4,85,8.8,85.3,9,85.7c0.2,0.4,0.9,1.5,1.4,0.4c0.4-1.1-0.1-2.3,0.4-3.2c0.5-0.9,1.2-1.6,1.9-0.8
		c0.7,0.7,1,0.1,1.4-0.2c0.2-0.2,0.6-0.2,0.9-0.3c0.2-0.1,0.3-0.3,0.4-0.4c0.2-0.2,0.7-0.4,0.7,0.4c0,0.3-0.2,0.4-0.1,0.7
		c0.1,0.4,0.4,1,0.3,1.3c-0.2,0.5-0.7,1.2-1.3,2c-0.6,0.9-0.8,1.2,0.4,0.8c1.2-0.4,2.2-1.8,2.3-0.4c0.2,1.4-0.9,2.6-1.1,2.8
		c-0.2,0.2-1.1,0.7-2,1.1c-0.8,0.5-1.6,1.6-0.3,1.3c1.2-0.4,2.1-1.1,2.5-0.6c0.4,0.5-0.1,1.4-0.4,1.9c-0.3,0.5-1,1.3-1.8,1.7
		c-0.8,0.4-1.4,0.9-0.3,1.2c1.1,0.3-0.4,1.5-0.4,2c0,0.5,0,0.9,0.1,1.8C14.3,100.2,15.6,104,15.3,103.8"/>
	<path class="st0" d="M87.1,145.5l0,1.3c0,0,4,0.8,5.4,1.5c1.5,0.7,6.6,3.4,7.8,3.4c1.2-0.1,3.4-0.7,5.9-1.7c2.6-1,5.7-2.1,6.6-2.6
		c0.9-0.5,5.4-3.9,4.5-3.8c-0.9,0.1-2.1,0.4-3.3,0.8c-1.3,0.4-5,2.3-5.3,2.5c-0.3,0.2-2,1.2-3.6,1.7c-1.6,0.6-4.3,1.3-5.5,0.9
		c-2-0.7,0.4-1.4,0.9-1.4c0.5,0,2.7-0.6,3.7-0.6c1-0.1,6-3.6,11-4.4c2.9-0.5-1.3-0.8-3.1-0.5c-1.6,0.3-5.8,1.6-6.3,1.9
		c-0.5,0.3-6.4,2.5-7.6,3c-1.2,0.5-1.6,0.3-2.3,0.2C95.5,147.9,88.3,144.8,87.1,145.5"/>
	<path class="st0" d="M117.3,142.1l1,0.7c0,0,1.2-1.9,4.1-2.9c2.8-1.1,2.8-0.7,4.1-1.4c1.3-0.8,4-2.6,5.4-4c1.3-1.5,3.9-3.3,4.5-4.4
		c0.6-1.1,1.4-4.2,0.8-3.8c-0.5,0.4-0.5,1.1-1.1,2.3c-0.7,1.2-4.6,3.5-4.7,3.6c-0.1,0.1-2.4,2.3-3.2,3c-0.8,0.7-2.2,2.4-3.1,2.8
		c-1.5,0.5-0.8-0.7-0.5-1c0.3-0.3,3.2-3.7,5.1-5c1.9-1.3,7.4-4.8,6.7-6.8c0,0-2.7,1.9-2.9,2c-0.2,0.2-2.9,2.2-3.2,2.4
		c-0.3,0.3-4.9,4.1-5.7,5.5c-0.8,1.3-1.6,1.8-2.9,3C121.7,138.2,116.5,141.5,117.3,142.1"/>
	<path class="st0" d="M138.4,124.4l0.1,1.2c0.5,0,3.2-3.2,4-4.7c0.8-1.5,3-2.5,3.8-3.8c0.8-1.3,1-2,1.7-3.2c0.7-1.2,2.3-6.6,2.5-8.4
		c0.2-1.8,0-3.2-1.1-1.2c-1.1,2-0.8,2.6-1.2,3.5c-0.3,0.9-1.5,4.2-1.5,4.2c-0.1,0.1-1.2,3-1.6,3.8c-0.4,0.8-1.1,2-1.6,2.6
		c-1.7,1.2-1-0.3-0.8-1.1c0.3-0.8,1.7-3.1,2.1-4.5c0.4-1.3,2.6-6.6,3.3-8c0.3-0.9-1.7,1.4-2.5,2.7c-0.5,0.9-1.4,2.8-1.5,3.1
		c-0.1,0.3-2.1,4.7-2.1,4.8c0,0.1-1.3,2.4-1.4,4.5C140.7,122,138.8,124.1,138.4,124.4"/>
	<path class="st0" d="M149.2,102.8l1.2-0.9c0.1-1,0.5-3.8,1.1-4.4c0.7-1.1,2.3-3.3,2.6-4.3c0.3-1,0.3-0.9,0.7-2
		c0.3-1.1,0.6-6.4,0.5-6.8c-0.1-0.4-1.5-2.4-1.5-1.9c0,0.5,0.3,0.2,0.2,1.8c0,1.6-0.7,3-1.1,4.1c-0.4,1.1-0.3,2.4-0.3,3.2
		c0,0.8,0.2,1.7-0.2,2.4c-0.4,0.6-0.7,0.9-1.1-0.5c-0.4-1.4,0.5-6.5,1.7-8.3c0.4-2.4-0.3-2.6-0.5-2.6c-0.1-0.4-1.3,1.5-1.6,2.6
		c-0.2,0.9-0.6,3.9-0.7,4.2c-0.1,0.2-0.3,6.8-0.1,7.2c-0.3,0.3-1.2,3.2-1.1,4.1C149.1,101.6,149,103,149.2,102.8"/>
	<path class="st0" d="M98.6,152.1c0.1,0.1,1.9,2.5,5.3,2.5c1.4,0,4.2-0.7,5.5-1.2c1.2-0.5,3.4-1.4,4-1.6c0.6-0.2,4.5-2.3,4.7-2.3
		c0.2,0,0.2-0.5-1.5-0.2c-1.6,0.3-5.5,2-6.5,2.5c-1,0.5-3.2,1.1-3.6,1.2c-0.4,0.1-1.7,0.6-2.7,0.4c-0.7,0-1.4-0.4-0.1-0.5
		c1.3-0.1,3.1-0.5,4-0.9c1.3-0.5,2.6-1,3.2-1.4c0.7-0.4,3.3-1.3,4-1.4c0.7-0.1,2-0.1,0.9-0.6c-1.1-0.5-3.6,0.1-3.9,0.3
		c-0.3,0.2-3.4,1.4-4,1.6c-0.6,0.2-2.4,1-3.6,1.3c-1.2,0.2-2.5,1-3.7,0.8C99.9,152.5,98.5,152,98.6,152.1"/>
	<path class="st0" d="M123.6,140.9c0.2,0.1,1,0.2,3.8,0.2c1.4-0.4,3.7,0,4.8-0.8c1.1-0.8,4.5-4,5.1-4.4c0.5-0.5,1.7-1.7,2.2-2.3
		c0.5-0.6,1.2-3.4,0.4-2.8c-0.4,1.2-3.3,4.6-4.7,5.6c-1.4,1-2.4,2.1-2.7,2.2c-0.3,0.2-1,0.9-2,1.1c-0.6,0.3-1-0.4-0.1-1.1
		c0.9-0.7,1.2-0.8,2-1.4c1.1-0.8,1.6-1.3,2.6-2.1c1.1-0.8,3.2-3.5,3.4-4.2l-1.2,0.1c-0.5,0.8-1.4,1.7-2.5,2.8
		c-0.3,0.3-2.2,2.2-2.7,2.5c-0.5,0.3-2,1.5-3.1,2c-1.1,0.5-2,1.2-3.2,1.3C124.9,139.9,123.5,140.9,123.6,140.9"/>
	<path class="st0" d="M143.9,121.8c0,0,1-0.1,3.2-1.1c1-0.2,2.3-0.6,2.9-1.9c0.7-1.2,2.5-4.7,2.7-5.4c0.2-0.7-0.2,0.6,1.1-2.7
		c1.3-3.3,0.6-2.4-0.1-1.9c-0.8,1-2.2,4.3-2.6,5.4c-0.5,1.4-1.2,3.2-2.2,4.2c-0.7,0.8-1.9,0.8-0.8-0.7c1-1.4,1-1.1,1.4-1.9
		c0.5-1,0.8-1.6,1.1-2.7c0.3-1.2,2.6-4.7,2.8-5.1c-1.2,0.6-2.8,1.7-2.9,2.3c-0.5,2.1-2.3,5.3-3,7.2C147,118.2,143,121.6,143.9,121.8
		"/>
	<path class="st0" d="M152.3,99.6c0,0,1.3-1.4,2.8-2.5c0.8-0.7,1.1-0.9,2.1-1.9c1-1,1.6-2.9,1.5-3.5c-0.1-0.6,0.5-1.2,0.4-4.1
		c-0.1-2.5-1.6-3-1.5-2.9c0.1,0.2,0.8,2.1,0.3,4.2c-0.5,1.3-1,4.1-1.1,5c-0.1,1.1-1.1,1.8-0.9,0.1c0.2-1.7,0.4-1.7,0.5-2.4
		c0.2-0.9,0.7-2.6,0.8-3.6c0.2-1,0-2.5-0.1-2.9c-0.1-0.5-1.1-0.1-1,0.8c0.3,2.2-0.5,7.2-1.7,9.1c-0.2,0.3-1.1,1.3-1.8,2.5
		C152.3,98.5,152,99.5,152.3,99.6"/>
	<path class="st0" d="M95.9,146.1c-1,0.3-1.4,0.5-0.5,0.8c0.9,0.3,1.7,0.4,3.3-0.2c1.6-0.6,1.4-0.6,3-1.3c1.5-0.7,1.8-0.9,2.8-1.2
		c1-0.3,2.5-1,3.5-1.3c1-0.3,1.8-0.4,2.8-0.6c1-0.2,1.4-0.3,1.4-0.3s0.2-0.8,0.1-1.1c-0.8-0.1-3.2,0-4.8,1.1c-1.6,1-4.1,1.5-4.5,1.6
		c-0.4,0.1-2.4,1.1-2.7,0.9c-0.3-0.1,1.4-1.5,2.7-1.9c1.3-0.3,2.7-0.7,3.6-1.1c0.8-0.5,2.5-1.5,4.5-1.5c1.9,0,0.4-0.5,0.2-0.5
		c-1.1-0.2-2.9-0.4-5.3,0.9c-2,0.6-3.2,0.8-4.4,1.7c-1.2,0.9-2.5,2.1-3.2,2.7C97.7,145.1,97.4,145.6,95.9,146.1"/>
	<path class="st0" d="M121.1,136.3c-0.2,0.8-0.6,1.2,0.1,1.1c0.7-0.1,1.6-1,2.4-2.1c1.5-2,2.5-3.5,4.2-4.9c0.6-0.5,1.7-1.3,2-1.9
		c0.1-0.2,0.3-1.5,0.3-1.9c-0.4,0.4-2.5,2.2-3.6,3.1c-1,0.9-1.8,2-1.9,2.2c-0.2,0.2-1.6,2.6-2,2.6c-0.4,0,0.8-2.4,1.4-3.2
		c0.5-0.9,3.1-2.9,3.3-3.2c0.3-0.4,1.7-1,2.9-3.1c1.3-2.9-0.3-1.6-1-0.3c-0.5,0.9-3.3,3.2-4.6,4.2c-1.1,1.2-2,1.9-2.5,3
		C121.3,133.5,121.5,134.8,121.1,136.3"/>
	<path class="st0" d="M139.2,118.7c0.1,0.7,0.4,1.3,0.7,0.9c0.3-0.4,0.3-1.8,0.6-2.9c0.6-2,1.4-3.6,2.2-5.2c0.3-0.6,2.2-4.6,2.6-5
		c0.4-0.4-0.1-1.6-0.5-1.7c-0.4,0.2-2.3,4.2-2.4,5.3c-0.2,1.2-1.4,3.4-1.5,3.6c-0.1,0.2-0.8,1.5-1.1,1.7c-0.3,0.2-0.8,0.2-0.6-0.6
		c0.2-0.8,2.1-4,2.1-4.5c0.1-0.4,0.6-2.4,1.4-3.8c1.8-2.8-0.4-1.1-1.1,0c-0.4,0.5-1.8,3.4-2.5,5.3c-0.6,1.2-0.8,2.1-0.8,3.2
		C138.1,116.5,138.9,117.4,139.2,118.7"/>
	<path class="st0" d="M148.2,95.5c0.7,0.9,1,1.1,1.1,0.4c0.1-0.8,0-2.2-0.1-3.1c-0.3-1.7-0.3-1.9-0.1-3.3c0.2-1.8,0.1-1.8,0-2.1
		c0-0.3-0.7-1.7-0.8-1.7c-0.2,0.2-0.1,1.3-0.2,2.5c-0.2,0.5-0.2,1-0.2,1.5c0,0.5,0.3,1.6,0.6,2.6c0.2,1,0,1.8-0.7,0.8
		c-0.3-0.5-0.8-3.1-0.8-3.8c0-0.7,0.1-2,0.4-3c0.4-2.1-1-3.4-1.1-2.9c-0.1,0.4-0.3,4.2-0.3,5.9c-0.1,1.1,0.2,3.1,0.7,3.8
		C147.1,94,147.4,94.6,148.2,95.5"/>
	<polygon class="st1" points="209.2,67.6 202,67.6 202,62.5 222.6,62.5 222.6,67.6 215.3,67.6 215.3,89.2 209.2,89.2 	"/>
	<path class="st1" d="M225.6,62.9c1.9-0.3,4.8-0.6,8.1-0.6c4,0,6.8,0.6,8.7,2.1c1.6,1.3,2.5,3.2,2.5,5.6c0,3.4-2.4,5.7-4.7,6.5v0.1
		c1.9,0.8,2.9,2.5,3.6,5c0.8,3,1.6,6.5,2.1,7.6h-6.2c-0.4-0.8-1.1-2.9-1.8-6.2c-0.8-3.4-1.9-4.2-4.4-4.3h-1.8v10.5h-6V62.9z
		 M231.6,74.4h2.4c3,0,4.8-1.5,4.8-3.8c0-2.4-1.7-3.7-4.4-3.7c-1.5,0-2.3,0.1-2.7,0.2V74.4z"/>
	<rect x="249" y="62.5" class="st1" width="6" height="26.7"/>
	<path class="st1" d="M260.1,62.9c1.6-0.3,4.8-0.5,7.8-0.5c3.7,0,6,0.4,8,1.5c1.9,1,3.2,2.8,3.2,5.3c0,2.3-1.4,4.5-4.4,5.7v0.1
		c3.1,0.8,5.3,3.1,5.3,6.5c0,2.5-1.1,4.4-2.8,5.7c-2,1.5-5.2,2.4-10.5,2.4c-3,0-5.2-0.2-6.6-0.4V62.9z M266.1,73.1h2
		c3.2,0,4.9-1.3,4.9-3.3c0-2-1.6-3.1-4.3-3.1c-1.4,0-2.1,0.1-2.6,0.2V73.1z M266.1,84.9c0.6,0.1,1.3,0.1,2.3,0.1
		c2.7,0,5.2-1.1,5.2-3.9c0-2.7-2.4-3.7-5.4-3.7h-2.1V84.9z"/>
	<path class="st1" d="M290,62.5v15.3c0,4.6,1.8,7,4.9,7c3.2,0,4.9-2.2,4.9-7V62.5h6v15c0,8.2-4.2,12.2-11.2,12.2
		c-6.8,0-10.7-3.8-10.7-12.2V62.5H290z"/>
	<path class="st1" d="M310.8,89.2V62.5h7.1l5.6,9.8c1.6,2.8,3.1,6.1,4.4,9.2h0.1c-0.4-3.5-0.5-7.1-0.5-11.2v-7.8h5.6v26.7h-6.4
		l-5.7-10.3c-1.6-2.9-3.4-6.3-4.7-9.4h-0.2c0.2,3.6,0.3,7.3,0.3,11.7v8H310.8z"/>
	<path class="st1" d="M344.3,82.4l-1.9,6.9h-6.2l8.1-26.7h8l8.3,26.7H354l-2.1-6.9H344.3z M351.1,77.8l-1.7-5.7
		c-0.5-1.6-1-3.6-1.3-5.1H348c-0.4,1.6-0.8,3.6-1.2,5.1l-1.6,5.7H351.1z"/>
	<polygon class="st1" points="364,62.5 370,62.5 370,84.1 380.7,84.1 380.7,89.2 364,89.2 	"/>
	<polygon class="st1" points="407.8,77.9 398,77.9 398,84.3 409,84.3 409,89.2 391.9,89.2 391.9,62.5 408.4,62.5 408.4,67.5
		398,67.5 398,73 407.8,73 	"/>
	<polygon class="st1" points="412.9,62.5 419,62.5 419,84.1 429.6,84.1 429.6,89.2 412.9,89.2 	"/>
	<polygon class="st1" points="448.9,77.9 439.1,77.9 439.1,84.3 450.1,84.3 450.1,89.2 433.1,89.2 433.1,62.5 449.5,62.5
		449.5,67.5 439.1,67.5 439.1,73 448.9,73 	"/>
	<path class="st1" d="M473.7,88.5c-1.1,0.5-3.6,1.2-6.8,1.2c-9.3,0-14-5.8-14-13.4c0-9.1,6.5-14.1,14.6-14.1c3.1,0,5.5,0.6,6.6,1.2
		l-1.3,4.8c-1.2-0.5-2.9-1-5.1-1c-4.8,0-8.5,2.9-8.5,8.8c0,5.3,3.2,8.7,8.6,8.7c1.9,0,3.9-0.4,5.1-0.9L473.7,88.5z"/>
	<polygon class="st1" points="482.7,67.6 475.5,67.6 475.5,62.5 496.1,62.5 496.1,67.6 488.7,67.6 488.7,89.2 482.7,89.2 	"/>
	<path class="st1" d="M523.6,75.6c0,8.8-5.3,14.1-13.2,14.1c-7.9,0-12.6-6-12.6-13.6c0-8,5.2-14,13-14
		C519.1,62,523.6,68.2,523.6,75.6 M504.2,75.9c0,5.3,2.5,8.9,6.5,8.9c4.1,0,6.4-3.9,6.4-9.1c0-4.8-2.3-8.9-6.4-8.9
		C506.6,66.8,504.2,70.7,504.2,75.9"/>
	<path class="st1" d="M527.4,62.9c1.9-0.3,4.8-0.6,8.1-0.6c4,0,6.8,0.6,8.7,2.1c1.6,1.3,2.5,3.2,2.5,5.6c0,3.4-2.4,5.7-4.7,6.5v0.1
		c1.9,0.8,2.9,2.5,3.6,5c0.8,3,1.6,6.5,2.1,7.6h-6.2c-0.4-0.8-1.1-2.9-1.8-6.2c-0.8-3.4-1.9-4.2-4.4-4.3h-1.8v10.5h-6V62.9z
		 M533.4,74.4h2.4c3,0,4.8-1.5,4.8-3.8c0-2.4-1.7-3.7-4.5-3.7c-1.5,0-2.3,0.1-2.7,0.2V74.4z"/>
	<path class="st1" d="M557,82.4l-1.9,6.9h-6.2l8.1-26.7h7.9l8.4,26.7h-6.6l-2.1-6.9H557z M563.8,77.8l-1.7-5.7
		c-0.5-1.6-1-3.6-1.3-5.1h-0.1c-0.4,1.6-0.8,3.6-1.2,5.1l-1.6,5.7H563.8z"/>
	<polygon class="st1" points="576.7,62.5 582.7,62.5 582.7,84.1 593.4,84.1 593.4,89.2 576.7,89.2 	"/>
	<path class="st1" d="M211.1,100.5v14.6c0,1.4,0.1,2.9,0.1,3.8h-3.5l-0.2-1.8h-0.1c-0.8,1.4-2.3,2.1-4,2.1c-3,0-5.4-2.6-5.4-6.5
		c0-4.3,2.7-6.8,5.7-6.8c1.6,0,2.8,0.6,3.4,1.4h0v-6.8H211.1z M207.2,111.5c0-0.2,0-0.5,0-0.7c-0.2-1-1.1-1.9-2.3-1.9
		c-1.8,0-2.7,1.6-2.7,3.6c0,2.1,1.1,3.5,2.7,3.5c1.1,0,2.1-0.8,2.3-1.9c0-0.3,0.1-0.6,0.1-0.9V111.5z"/>
	<path class="st1" d="M217.4,113.8c0.1,1.6,1.7,2.4,3.6,2.4c1.3,0,2.4-0.2,3.5-0.5l0.5,2.7c-1.3,0.5-2.9,0.8-4.6,0.8
		c-4.3,0-6.8-2.5-6.8-6.4c0-3.2,2-6.8,6.4-6.8c4.1,0,5.7,3.2,5.7,6.3c0,0.7-0.1,1.3-0.1,1.6H217.4z M222,111.1c0-1-0.4-2.6-2.2-2.6
		c-1.7,0-2.3,1.5-2.4,2.6H222z"/>
	<rect x="228" y="100.5" class="st1" width="4" height="18.4"/>
	<path class="st1" d="M240.6,101.6c1.2-0.2,2.9-0.4,5.4-0.4c2.4,0,4.2,0.5,5.3,1.4c1.1,0.9,1.9,2.3,1.9,4c0,1.7-0.5,3.2-1.6,4.1
		c-1.4,1.2-3.4,1.8-5.7,1.8c-0.5,0-1,0-1.4-0.1v6.3h-3.9V101.6z M244.5,109.5c0.3,0.1,0.7,0.1,1.3,0.1c2.1,0,3.4-1.1,3.4-2.8
		c0-1.6-1.1-2.6-3.1-2.6c-0.8,0-1.3,0.1-1.6,0.1V109.5z"/>
	<path class="st1" d="M268.1,112.4c0,4.6-3.3,6.8-6.7,6.8c-3.7,0-6.6-2.4-6.6-6.5c0-4.1,2.7-6.7,6.8-6.7
		C265.5,105.9,268.1,108.5,268.1,112.4 M258.9,112.5c0,2.2,0.9,3.8,2.6,3.8c1.6,0,2.5-1.5,2.5-3.8c0-1.9-0.7-3.8-2.5-3.8
		C259.6,108.7,258.9,110.6,258.9,112.5"/>
	<path class="st1" d="M282.9,100.5v14.6c0,1.4,0.1,2.9,0.1,3.8h-3.5l-0.2-1.8h-0.1c-0.8,1.4-2.3,2.1-4,2.1c-3,0-5.4-2.6-5.4-6.5
		c0-4.3,2.6-6.8,5.7-6.8c1.6,0,2.8,0.6,3.4,1.4h0.1v-6.8H282.9z M278.9,111.5c0-0.2,0-0.5-0.1-0.7c-0.2-1-1.1-1.9-2.3-1.9
		c-1.8,0-2.7,1.6-2.7,3.6c0,2.1,1.1,3.5,2.7,3.5c1.1,0,2.1-0.8,2.3-1.9c0.1-0.3,0.1-0.6,0.1-0.9V111.5z"/>
	<path class="st1" d="M289.1,113.8c0.1,1.6,1.7,2.4,3.6,2.4c1.4,0,2.4-0.2,3.5-0.5l0.5,2.7c-1.3,0.5-2.9,0.8-4.6,0.8
		c-4.3,0-6.8-2.5-6.8-6.4c0-3.2,2-6.8,6.4-6.8c4.1,0,5.7,3.2,5.7,6.3c0,0.7-0.1,1.3-0.1,1.6H289.1z M293.7,111.1
		c0-1-0.4-2.6-2.2-2.6c-1.7,0-2.3,1.5-2.4,2.6H293.7z"/>
	<path class="st1" d="M299.7,110.4c0-1.9,0-3.1-0.1-4.2h3.4l0.2,2.3h0.1c0.7-1.9,2.2-2.6,3.4-2.6c0.4,0,0.5,0,0.8,0.1v3.7
		c-0.3,0-0.6-0.1-1.1-0.1c-1.5,0-2.4,0.8-2.7,2c-0.1,0.3-0.1,0.6-0.1,0.9v6.4h-4V110.4z"/>
	<path class="st1" d="M318.4,101.4h4v11c0,5-2.4,6.7-6.2,6.7c-0.9,0-2.1-0.2-2.9-0.4l0.4-3.2c0.5,0.2,1.2,0.3,2,0.3
		c1.7,0,2.7-0.8,2.7-3.4V101.4z"/>
	<path class="st1" d="M337.5,114.8c0,1.7,0.1,3,0.1,4.1h-3.4l-0.2-1.8H334c-0.5,0.8-1.7,2.1-4,2.1c-2.6,0-4.5-1.6-4.5-5.5v-7.4h4
		v6.8c0,1.8,0.6,2.9,2,2.9c1.1,0,1.7-0.7,2-1.4c0.1-0.2,0.2-0.5,0.2-0.9v-7.5h3.9V114.8z"/>
	<path class="st1" d="M353,100.5v14.6c0,1.4,0,2.9,0.1,3.8h-3.5l-0.2-1.8h-0.1c-0.8,1.4-2.3,2.1-4,2.1c-3,0-5.4-2.6-5.4-6.5
		c0-4.3,2.6-6.8,5.7-6.8c1.6,0,2.8,0.6,3.4,1.4h0.1v-6.8H353z M349.1,111.5c0-0.2,0-0.5-0.1-0.7c-0.2-1-1.1-1.9-2.3-1.9
		c-1.8,0-2.7,1.6-2.7,3.6c0,2.1,1.1,3.5,2.7,3.5c1.1,0,2.1-0.8,2.3-1.9c0-0.3,0.1-0.6,0.1-0.9V111.5z"/>
	<path class="st1" d="M360.3,102.7c0,1.1-0.8,2-2.1,2c-1.2,0-2.1-0.9-2.1-2c0-1.1,0.8-2,2.1-2S360.3,101.5,360.3,102.7 M356.2,106.2
		h4v12.7h-4V106.2z"/>
	<path class="st1" d="M372.9,118.5c-0.7,0.3-2,0.6-3.5,0.6c-4.1,0-6.7-2.5-6.7-6.5c0-3.7,2.5-6.7,7.3-6.7c1,0,2.2,0.2,3,0.5
		l-0.6,2.9c-0.5-0.2-1.2-0.4-2.2-0.4c-2.1,0-3.4,1.5-3.4,3.5c0,2.3,1.6,3.6,3.5,3.6c0.9,0,1.7-0.2,2.3-0.4L372.9,118.5z"/>
	<path class="st1" d="M379.1,102.7c0,1.1-0.8,2-2.1,2c-1.3,0-2.1-0.9-2.1-2c0-1.1,0.8-2,2.1-2C378.3,100.7,379.1,101.5,379.1,102.7
		 M375,106.2h3.9v12.7H375V106.2z"/>
	<path class="st1" d="M392.7,115.8c0,1.2,0.1,2.4,0.2,3.1h-3.6l-0.2-1.3h-0.1c-0.8,1-2.1,1.5-3.6,1.5c-2.6,0-4.1-1.9-4.1-3.9
		c0-3.3,3-4.8,7.5-4.8v-0.2c0-0.7-0.4-1.7-2.3-1.7c-1.3,0-2.7,0.4-3.5,1l-0.7-2.5c0.9-0.5,2.6-1.1,4.9-1.1c4.2,0,5.6,2.5,5.6,5.5
		V115.8z M388.9,112.9c-2.1,0-3.7,0.5-3.7,2c0,1,0.7,1.5,1.6,1.5c1,0,1.8-0.6,2.1-1.5c0.1-0.2,0.1-0.4,0.1-0.7V112.9z"/>
	<rect x="395.9" y="100.5" class="st1" width="4" height="18.4"/>
	<path class="st1" d="M420.6,100.5v14.6c0,1.4,0,2.9,0.1,3.8h-3.5L417,117H417c-0.8,1.4-2.3,2.1-4,2.1c-3,0-5.4-2.6-5.4-6.5
		c0-4.3,2.6-6.8,5.7-6.8c1.6,0,2.8,0.6,3.4,1.4h0v-6.8H420.6z M416.7,111.5c0-0.2,0-0.5,0-0.7c-0.2-1-1.1-1.9-2.3-1.9
		c-1.8,0-2.7,1.6-2.7,3.6c0,2.1,1.1,3.5,2.7,3.5c1.1,0,2.1-0.8,2.3-1.9c0-0.3,0.1-0.6,0.1-0.9V111.5z"/>
	<path class="st1" d="M426.8,113.8c0.1,1.6,1.7,2.4,3.6,2.4c1.3,0,2.4-0.2,3.5-0.5l0.5,2.7c-1.3,0.5-2.9,0.8-4.6,0.8
		c-4.3,0-6.8-2.5-6.8-6.4c0-3.2,2-6.8,6.4-6.8c4.1,0,5.7,3.2,5.7,6.3c0,0.7-0.1,1.3-0.1,1.6H426.8z M431.5,111.1
		c0-1-0.4-2.6-2.2-2.6c-1.7,0-2.3,1.5-2.4,2.6H431.5z"/>
	<rect x="442.7" y="100.5" class="st1" width="4" height="18.4"/>
	<path class="st1" d="M460.5,115.8c0,1.2,0,2.4,0.2,3.1h-3.6l-0.2-1.3h-0.1c-0.8,1-2.1,1.5-3.6,1.5c-2.6,0-4.1-1.9-4.1-3.9
		c0-3.3,3-4.8,7.5-4.8v-0.2c0-0.7-0.4-1.7-2.3-1.7c-1.3,0-2.7,0.4-3.5,1L450,107c0.9-0.5,2.6-1.1,4.9-1.1c4.2,0,5.6,2.5,5.6,5.5
		V115.8z M456.6,112.9c-2.1,0-3.7,0.5-3.7,2c0,1,0.7,1.5,1.6,1.5c1,0,1.8-0.6,2.1-1.5c0.1-0.2,0.1-0.4,0.1-0.7V112.9z"/>
	<polygon class="st1" points="469,101.4 479.7,101.4 479.7,104.6 473,104.6 473,108.6 479.3,108.6 479.3,111.8 473,111.8 473,118.8
		469,118.8 	"/>
	<path class="st1" d="M485.6,113.8c0.1,1.6,1.7,2.4,3.6,2.4c1.4,0,2.5-0.2,3.5-0.5l0.5,2.7c-1.3,0.5-2.9,0.8-4.6,0.8
		c-4.3,0-6.8-2.5-6.8-6.4c0-3.2,2-6.8,6.4-6.8c4.1,0,5.7,3.2,5.7,6.3c0,0.7-0.1,1.3-0.1,1.6H485.6z M490.3,111.1
		c0-1-0.4-2.6-2.2-2.6c-1.7,0-2.3,1.5-2.4,2.6H490.3z"/>
	<path class="st1" d="M508.6,100.5v14.6c0,1.4,0.1,2.9,0.1,3.8h-3.5L505,117H505c-0.8,1.4-2.3,2.1-4,2.1c-3,0-5.4-2.6-5.4-6.5
		c0-4.3,2.7-6.8,5.7-6.8c1.6,0,2.8,0.6,3.4,1.4h0v-6.8H508.6z M504.7,111.5c0-0.2,0-0.5,0-0.7c-0.2-1-1.1-1.9-2.3-1.9
		c-1.8,0-2.7,1.6-2.7,3.6c0,2.1,1.1,3.5,2.7,3.5c1.1,0,2.1-0.8,2.3-1.9c0.1-0.3,0.1-0.6,0.1-0.9V111.5z"/>
	<path class="st1" d="M514.8,113.8c0.1,1.6,1.7,2.4,3.6,2.4c1.4,0,2.4-0.2,3.5-0.5l0.5,2.7c-1.3,0.5-2.9,0.8-4.6,0.8
		c-4.3,0-6.8-2.5-6.8-6.4c0-3.2,2-6.8,6.4-6.8c4.1,0,5.7,3.2,5.7,6.3c0,0.7-0.1,1.3-0.1,1.6H514.8z M519.5,111.1
		c0-1-0.4-2.6-2.2-2.6c-1.7,0-2.3,1.5-2.4,2.6H519.5z"/>
	<path class="st1" d="M525.5,110.4c0-1.9,0-3.1-0.1-4.2h3.4l0.2,2.3h0.1c0.6-1.9,2.2-2.6,3.4-2.6c0.4,0,0.5,0,0.8,0.1v3.7
		c-0.3,0-0.6-0.1-1.1-0.1c-1.5,0-2.4,0.8-2.7,2c0,0.3-0.1,0.6-0.1,0.9v6.4h-4V110.4z"/>
	<path class="st1" d="M546,115.8c0,1.2,0.1,2.4,0.2,3.1h-3.6l-0.2-1.3h-0.1c-0.8,1-2.1,1.5-3.6,1.5c-2.6,0-4.1-1.9-4.1-3.9
		c0-3.3,3-4.8,7.5-4.8v-0.2c0-0.7-0.4-1.7-2.3-1.7c-1.3,0-2.7,0.4-3.5,1l-0.7-2.5c0.9-0.5,2.6-1.1,4.9-1.1c4.2,0,5.6,2.5,5.6,5.5
		V115.8z M542.1,112.9c-2.1,0-3.7,0.5-3.7,2c0,1,0.7,1.5,1.6,1.5c1,0,1.8-0.6,2.1-1.5c0.1-0.2,0.1-0.4,0.1-0.7V112.9z"/>
	<path class="st1" d="M558.6,118.5c-0.7,0.3-2,0.6-3.5,0.6c-4.1,0-6.7-2.5-6.7-6.5c0-3.7,2.5-6.7,7.3-6.7c1,0,2.2,0.2,3,0.5
		l-0.6,2.9c-0.5-0.2-1.2-0.4-2.2-0.4c-2.1,0-3.4,1.5-3.4,3.5c0,2.3,1.6,3.6,3.5,3.6c0.9,0,1.7-0.2,2.3-0.4L558.6,118.5z"/>
	<path class="st1" d="M564.9,102.7c0,1.1-0.8,2-2.1,2c-1.2,0-2.1-0.9-2.1-2c0-1.1,0.8-2,2.1-2C564.1,100.7,564.9,101.5,564.9,102.7
		 M560.8,106.2h4v12.7h-4V106.2z"/>
	<path class="st1" d="M580.5,112.4c0,4.6-3.3,6.8-6.7,6.8c-3.7,0-6.6-2.4-6.6-6.5c0-4.1,2.7-6.7,6.8-6.7
		C577.9,105.9,580.5,108.5,580.5,112.4 M571.3,112.5c0,2.2,0.9,3.8,2.6,3.8c1.6,0,2.5-1.5,2.5-3.8c0-1.9-0.7-3.8-2.5-3.8
		C572,108.7,571.3,110.6,571.3,112.5 M578,100.7l-3.2,3.9h-2.7l2.2-3.9H578z"/>
	<path class="st1" d="M582.9,110.2c0-1.6-0.1-2.9-0.1-4h3.4l0.2,1.8h0.1c0.5-0.8,1.8-2,3.9-2c2.6,0,4.6,1.7,4.6,5.5v7.5h-3.9v-7
		c0-1.6-0.6-2.7-2-2.7c-1.1,0-1.7,0.8-2,1.5c-0.1,0.3-0.1,0.6-0.1,1v7.3h-3.9V110.2z"/>
</g>
</svg>
